<?xml version="1.0" encoding="UTF-8" standalone="no"?>
<!-- Created with Inkscape (http://www.inkscape.org/) -->

<svg
   xmlns:dc="http://purl.org/dc/elements/1.1/"
   xmlns:cc="http://creativecommons.org/ns#"
   xmlns:rdf="http://www.w3.org/1999/02/22-rdf-syntax-ns#"
   xmlns:svg="http://www.w3.org/2000/svg"
   xmlns="http://www.w3.org/2000/svg"
   version="1.1"
   width="32"
   height="32"
   id="svg2993">
  <defs
     id="defs2995" />
  <metadata
     id="metadata2998">
    <rdf:RDF>
      <cc:Work
         rdf:about="">
        <dc:format>image/svg+xml</dc:format>
        <dc:type
           rdf:resource="http://purl.org/dc/dcmitype/StillImage" />
        <dc:title></dc:title>
      </cc:Work>
    </rdf:RDF>
  </metadata>
  <g
     id="layer1">
    <path
       d="m 15.670915,12.858091 c 0,0 -2.378486,2.754036 -3.943279,0.438141 -0.250369,-3.129577 1.689973,-2.50366 1.689973,-2.50366 0,0 1.929589,-0.03004 2.253302,1.502201 0.938878,4.444001 4.631784,7.698768 4.631784,7.698768 l 0.125183,-8.449874 c 0,0 -0.563323,-3.2547608 -4.506604,-4.0058624 C 14.106117,7.3500287 9.8498871,7.913353 9.8498871,7.913353 c 0,0 3.6303139,-4.4440122 6.3843479,-3.3799558 2.754034,1.0640615 4.38142,1.8777539 5.883622,1.001469"
       id="path3822-0"
       style="fill:none;stroke:#000000;stroke-width:0.74355114;stroke-linecap:round;stroke-linejoin:round;stroke-miterlimit:4;stroke-opacity:1;stroke-dasharray:none" />
    <path
       d="m 20.490471,22.622396 c 0,0 -1.689978,1.940336 -2.94181,0.813688 -0.826622,-0.935061 -0.0946,-1.916434 0.166044,-2.124435 1.138927,-0.908887 2.838358,0.997786 2.838358,0.997786 l 0,6.008801 -3.317358,-2.816621 -2.128119,3.129582 c 0,0 -2.566257,-4.631784 -5.3828839,-3.254767 -1.8151567,2.190711 0.6885039,3.06699 0.6885039,3.06699 0,0 1.877754,0.500732 2.94181,-1.815157 1.064057,-2.315894 0.938878,-3.192174 0.938878,-3.192174"
       id="path3824-3"
       style="fill:none;stroke:#000000;stroke-width:0.74355114;stroke-linecap:round;stroke-linejoin:round;stroke-miterlimit:4;stroke-opacity:1;stroke-dasharray:none" />
  </g>
</svg>
