<?xml version="1.0" encoding="UTF-8" standalone="no"?>
<!-- Created with Inkscape (http://www.inkscape.org/) -->

<svg
   version="1.1"
   width="32"
   height="32"
   id="svg2993"
   sodipodi:docname="อำ.svg"
   inkscape:version="1.2.2 (b0a8486541, 2022-12-01)"
   xmlns:inkscape="http://www.inkscape.org/namespaces/inkscape"
   xmlns:sodipodi="http://sodipodi.sourceforge.net/DTD/sodipodi-0.dtd"
   xmlns="http://www.w3.org/2000/svg"
   xmlns:svg="http://www.w3.org/2000/svg"
   xmlns:rdf="http://www.w3.org/1999/02/22-rdf-syntax-ns#"
   xmlns:cc="http://creativecommons.org/ns#"
   xmlns:dc="http://purl.org/dc/elements/1.1/">
  <sodipodi:namedview
     id="namedview415"
     pagecolor="#ffffff"
     bordercolor="#999999"
     borderopacity="1"
     inkscape:showpageshadow="0"
     inkscape:pageopacity="0"
     inkscape:pagecheckerboard="0"
     inkscape:deskcolor="#d1d1d1"
     showgrid="false"
     inkscape:zoom="24.875"
     inkscape:cx="18.452261"
     inkscape:cy="11.296482"
     inkscape:window-width="1920"
     inkscape:window-height="1005"
     inkscape:window-x="1920"
     inkscape:window-y="0"
     inkscape:window-maximized="1"
     inkscape:current-layer="layer1" />
  <defs
     id="defs2995" />
  <metadata
     id="metadata2998">
    <rdf:RDF>
      <cc:Work
         rdf:about="">
        <dc:format>image/svg+xml</dc:format>
        <dc:type
           rdf:resource="http://purl.org/dc/dcmitype/StillImage" />
      </cc:Work>
    </rdf:RDF>
  </metadata>
  <g
     id="layer1">
    <path
       style="fill:none;stroke:#000000;stroke-width:1.193;stroke-linecap:round;stroke-linejoin:round;stroke-dasharray:none;stroke-opacity:1"
       d="m 15.987553,12.621785 c 1.670662,-2.7754655 3.501943,-3.0973732 4.998732,-3.2955357 1.734974,0.1103349 3.616679,-0.2218699 5.113735,3.3652967 0.09511,3.822261 0.03496,6.403514 0.03496,6.403514 -0.130141,5.040542 -0.0829,4.601383 -0.159908,9.722699"
       id="path5386"
       sodipodi:nodetypes="ccccc" />
    <path
       style="fill:none;stroke:#000000;stroke-width:1.193;stroke-linecap:round;stroke-linejoin:round;stroke-dasharray:none;stroke-opacity:1"
       d="m 9.6888152,6.9599413 c 0,0 -0.4387661,1.5319665 -1.5771239,1.6630725 C 7.6663395,8.5783091 6.4046012,8.221865 6.1642098,7.7578273 5.97882,7.4087761 5.9720478,6.2148806 5.9720478,5.7581794 6.4036884,5.0298662 7.4572669,4.3150961 7.8056887,4.3344629 c 1.0683593,0.022704 1.5305335,0.8531242 1.8590412,1.1534969 0.1151461,0.7050929 0.00978,1.1917498 0.00978,1.1917498"
       id="path25030"
       sodipodi:nodetypes="ccccccc" />
  </g>
</svg>
