<?xml version="1.0" encoding="UTF-8" standalone="no"?>
<!-- Created with Inkscape (http://www.inkscape.org/) -->

<svg
   xmlns:dc="http://purl.org/dc/elements/1.1/"
   xmlns:cc="http://creativecommons.org/ns#"
   xmlns:rdf="http://www.w3.org/1999/02/22-rdf-syntax-ns#"
   xmlns:svg="http://www.w3.org/2000/svg"
   xmlns="http://www.w3.org/2000/svg"
   xmlns:sodipodi="http://sodipodi.sourceforge.net/DTD/sodipodi-0.dtd"
   xmlns:inkscape="http://www.inkscape.org/namespaces/inkscape"
   width="1024"
   height="768"
   viewBox="0 0 1024 768.00001"
   id="svg2"
   version="1.1"
   inkscape:version="0.91 r13725"
   inkscape:export-filename="/home/krerkkiat/ก.png"
   inkscape:export-xdpi="90"
   inkscape:export-ydpi="90"
   sodipodi:docname="ก-sketchpad.svg">
  <defs
     id="defs4">
    <inkscape:path-effect
       effect="powerstroke"
       id="path-effect3400"
       is_visible="true"
       offset_points="0,0.5"
       sort_points="true"
       interpolator_type="CubicBezierJohan"
       interpolator_beta="0.2"
       start_linecap_type="zerowidth"
       linejoin_type="round"
       miter_limit="4"
       end_linecap_type="zerowidth"
       cusp_linecap_type="round" />
    <inkscape:path-effect
       effect="powerstroke"
       id="path-effect3351"
       is_visible="true"
       offset_points="0,0.5"
       sort_points="true"
       interpolator_type="CubicBezierJohan"
       interpolator_beta="0.2"
       start_linecap_type="zerowidth"
       linejoin_type="round"
       miter_limit="4"
       end_linecap_type="zerowidth"
       cusp_linecap_type="round" />
    <inkscape:path-effect
       effect="spiro"
       id="path-effect3349"
       is_visible="true" />
  </defs>
  <sodipodi:namedview
     id="base"
     pagecolor="#ffffff"
     bordercolor="#666666"
     borderopacity="1.0"
     inkscape:pageopacity="0.0"
     inkscape:pageshadow="2"
     inkscape:zoom="0.73567708"
     inkscape:cx="425.99594"
     inkscape:cy="384"
     inkscape:document-units="px"
     inkscape:current-layer="layer1"
     showgrid="true"
     units="px"
     showguides="true"
     inkscape:guide-bbox="true"
     inkscape:window-width="1364"
     inkscape:window-height="747"
     inkscape:window-x="0"
     inkscape:window-y="19"
     inkscape:window-maximized="0">
    <inkscape:grid
       type="xygrid"
       id="grid4225"
       originx="2.7755576e-17"
       originy="-10.3" />
    <sodipodi:guide
       position="60,709.70001"
       orientation="0,1"
       id="guide4453" />
    <sodipodi:guide
       position="60,709.70001"
       orientation="1,0"
       id="guide4455" />
    <sodipodi:guide
       position="60,469.70001"
       orientation="0,1"
       id="guide4480" />
    <sodipodi:guide
       position="60,229.7"
       orientation="0,1"
       id="guide4482" />
    <sodipodi:guide
       position="300,709.70001"
       orientation="1,0"
       id="guide4484" />
    <sodipodi:guide
       position="560,709.70001"
       orientation="1,0"
       id="guide4501" />
    <sodipodi:guide
       position="820,709.70001"
       orientation="1,0"
       id="guide4518" />
  </sodipodi:namedview>
  <metadata
     id="metadata7">
    <rdf:RDF>
      <cc:Work
         rdf:about="">
        <dc:format>image/svg+xml</dc:format>
        <dc:type
           rdf:resource="http://purl.org/dc/dcmitype/StillImage" />
        <dc:title />
      </cc:Work>
    </rdf:RDF>
  </metadata>
  <g
     inkscape:groupmode="layer"
     id="layer2"
     inkscape:label="dashed-letter"
     sodipodi:insensitive="true"
     style="display:inline">
    <g
       transform="translate(0,-284.36216)"
       style="font-style:normal;font-weight:normal;font-size:391.1137085px;line-height:125%;font-family:sans-serif;letter-spacing:0px;word-spacing:0px;fill:#000000;fill-opacity:1;stroke:none;stroke-width:1px;stroke-linecap:butt;stroke-linejoin:miter;stroke-opacity:1"
       id="text3340">
      <path
         d="m 190.53854,514.61813 q 0,-3.02808 1.94661,-4.97474 1.94664,-1.94664 4.97475,-1.94664 3.0281,0 4.97472,1.94664 1.94665,1.94666 1.94665,4.97474 0,3.02811 -1.94665,4.97476 -1.94662,1.94663 -4.97472,1.94663 -3.02811,0 -4.97475,-1.94663 -1.94661,-1.94665 -1.94661,-4.97476 z m 0,-20.7641 q 0,-3.02813 1.94661,-4.97476 1.94664,-1.94666 4.97475,-1.94666 3.0281,0 4.97472,1.94666 1.94665,1.94663 1.94665,4.97476 0,3.02809 -1.94665,4.97471 -1.94662,1.94663 -4.97472,1.94663 -3.02811,0 -4.97475,-1.94663 -1.94661,-1.94662 -1.94661,-4.97471 z m 0,-21.62936 q 0,-3.02807 1.94661,-4.97473 1.94664,-1.94663 4.97475,-1.94663 3.0281,0 4.97472,1.94663 1.94665,1.94666 1.94665,4.97473 0,3.02812 -1.94665,4.97477 -1.94662,1.94664 -4.97472,1.94664 -3.02811,0 -4.97475,-1.94664 -1.94661,-1.94665 -1.94661,-4.97477 z m 0,-20.76412 q 0,-3.02811 1.94661,-4.97474 1.94664,-1.94664 4.97475,-1.94664 3.0281,0 4.97472,1.94664 1.94665,1.94663 1.94665,4.97474 0,3.02811 -1.94665,4.97474 -1.94662,1.94663 -4.97472,1.94663 -3.02811,0 -4.97475,-1.94663 -1.94661,-1.94663 -1.94661,-4.97474 z m 0,-21.41303 q 0,-3.02808 1.94661,-4.97473 1.94664,-1.94665 4.97475,-1.94665 3.0281,0 4.97472,1.94665 1.94665,1.94665 1.94665,4.97473 0,3.02811 -1.94665,4.97476 -1.94662,1.94662 -4.97472,1.94662 -3.02811,0 -4.97475,-1.94662 -1.94661,-1.94665 -1.94661,-4.97476 z m 0,-20.76413 q 0,-3.02812 1.94661,-4.97476 1.94664,-1.94661 4.97475,-1.94661 3.0281,0 4.97472,1.94661 1.94665,1.94664 1.94665,4.97476 0,3.0281 -1.94665,4.97473 -1.94662,1.94664 -4.97472,1.94664 -3.02811,0 -4.97475,-1.94664 -1.94661,-1.94663 -1.94661,-4.97473 z m 0,-21.62931 q 0,-3.02813 1.94661,-4.97476 1.94664,-1.94663 4.97475,-1.94663 3.0281,0 4.97472,1.94663 1.94665,1.94663 1.94665,4.97476 0,3.02809 -1.94665,4.97472 -1.94662,1.94666 -4.97472,1.94666 -3.02811,0 -4.97475,-1.94666 -1.94661,-1.94663 -1.94661,-4.97472 z m -9.73323,-18.38492 q 0,-3.02811 1.94666,-4.97475 1.94663,-1.94665 4.97473,-1.94665 3.02812,0 4.97475,1.94665 1.94663,1.94664 1.94663,4.97475 0,3.02809 -1.94663,4.97475 -1.94663,1.94661 -4.97475,1.94661 -3.0281,0 -4.97473,-1.94661 -1.94666,-1.94666 -1.94666,-4.97475 z m -17.08715,-12.54502 q 0,-3.0281 1.94663,-4.97475 1.94665,-1.94662 4.97478,-1.94662 3.02808,0 4.97472,1.94662 1.94664,1.94665 1.94664,4.97475 0,3.0281 -1.94664,4.97474 -1.94664,1.94665 -4.97472,1.94665 -3.02813,0 -4.97478,-1.94665 -1.94663,-1.94664 -1.94663,-4.97474 z M 78.931258,514.61813 q 0,-3.02808 1.946639,-4.97474 1.946636,-1.94664 4.974745,-1.94664 3.028098,0 4.974739,1.94664 1.946641,1.94666 1.946641,4.97474 0,3.02811 -1.946641,4.97476 -1.946641,1.94663 -4.974739,1.94663 -3.028109,0 -4.974745,-1.94663 -1.946639,-1.94665 -1.946639,-4.97476 z m 0,-20.7641 q 0,-3.02813 1.946639,-4.97476 1.946636,-1.94666 4.974745,-1.94666 3.028098,0 4.974739,1.94666 1.946641,1.94663 1.946641,4.97476 0,3.02809 -1.946641,4.97471 -1.946641,1.94663 -4.974739,1.94663 -3.028109,0 -4.974745,-1.94663 -1.946639,-1.94662 -1.946639,-4.97471 z m 0,-21.62936 q 0,-3.02807 1.946639,-4.97473 1.946636,-1.94663 4.974745,-1.94663 3.028098,0 4.974739,1.94663 1.946641,1.94666 1.946641,4.97473 0,3.02812 -1.946641,4.97477 -1.946641,1.94664 -4.974739,1.94664 -3.028109,0 -4.974745,-1.94664 -1.946639,-1.94665 -1.946639,-4.97477 z m 0,-20.76412 q 0,-3.02811 1.946639,-4.97474 1.946636,-1.94664 4.974745,-1.94664 3.028098,0 4.974739,1.94664 1.946641,1.94663 1.946641,4.97474 0,3.02811 -1.946641,4.97474 -1.946641,1.94663 -4.974739,1.94663 -3.028109,0 -4.974745,-1.94663 -1.946639,-1.94663 -1.946639,-4.97474 z m 0,-21.41303 q 0,-3.02808 1.946639,-4.97473 1.946636,-1.94665 4.974745,-1.94665 3.028098,0 4.974739,1.94665 1.946641,1.94665 1.946641,4.97473 0,3.02811 -1.946641,4.97476 -1.946641,1.94662 -4.974739,1.94662 -3.028109,0 -4.974745,-1.94662 -1.946639,-1.94665 -1.946639,-4.97476 z m 1.946639,-20.11525 q 0,-3.02812 1.946636,-4.97475 1.946641,-1.94663 4.97475,-1.94663 3.028098,0 4.974739,1.94663 1.946632,1.94663 1.946632,4.97475 0,3.02809 -1.946632,4.97473 -1.946641,1.94665 -4.974739,1.94665 -3.028109,0 -4.97475,-1.94665 -1.946636,-1.94664 -1.946636,-4.97473 z m -1.946639,-22.27819 q 0,-3.02813 1.946639,-4.97476 1.946636,-1.94663 4.974745,-1.94663 3.028098,0 4.974739,1.94663 1.946641,1.94663 1.946641,4.97476 0,3.02809 -1.946641,4.97472 -1.946641,1.94666 -4.974739,1.94666 -3.028109,0 -4.974745,-1.94666 -1.946639,-1.94663 -1.946639,-4.97472 z m 19.466388,8.86803 q 0,-3.02814 1.946634,-4.97475 1.94664,-1.94666 4.97473,-1.94666 3.02812,0 4.97475,1.94666 1.94662,1.94661 1.94662,4.97475 0,3.02808 -1.94662,4.97472 -1.94663,1.94665 -4.97475,1.94665 -3.02809,0 -4.97473,-1.94665 -1.946634,-1.94664 -1.946634,-4.97472 z M 60.330048,378.56976 q 0,-3.02809 1.946637,-4.97475 1.94664,-1.94663 4.974744,-1.94663 3.028103,0 4.974743,1.94663 1.946635,1.94666 1.946635,4.97475 0,3.02808 -1.946635,4.97474 -1.94664,1.94663 -4.974743,1.94663 -3.028104,0 -4.974744,-1.94663 -1.946637,-1.94666 -1.946637,-4.97474 z M 76.33574,364.51071 q 0,-3.02813 1.946639,-4.97475 1.946637,-1.94664 4.974741,-1.94664 3.028109,0 4.97474,1.94664 1.946642,1.94662 1.946642,4.97475 0,3.02811 -1.946642,4.97472 -1.946631,1.94665 -4.97474,1.94665 -3.028104,0 -4.974741,-1.94665 -1.946639,-1.94661 -1.946639,-4.97472 z m 20.547846,-10.1658 q 0,-3.02807 1.946652,-4.97473 1.946632,-1.94664 4.974722,-1.94664 3.02811,0 4.97475,1.94664 1.94664,1.94666 1.94664,4.97473 0,3.02813 -1.94664,4.97477 -1.94664,1.94663 -4.97475,1.94663 -3.02809,0 -4.974722,-1.94663 -1.946652,-1.94664 -1.946652,-4.97477 z m 23.359634,-5.19103 q 0,-3.0281 1.94666,-4.97472 1.94664,-1.94665 4.97475,-1.94665 3.02811,0 4.97474,1.94665 1.94663,1.94662 1.94663,4.97472 0,3.02813 -1.94663,4.97475 -1.94663,1.94664 -4.97474,1.94664 -3.02811,0 -4.97475,-1.94664 -1.94666,-1.94662 -1.94666,-4.97475 z m 22.06193,1.51407 q 0,-3.02813 1.94661,-4.97473 1.94666,-1.94665 4.97475,-1.94665 3.02812,0 4.97474,1.94665 1.94665,1.9466 1.94665,4.97473 0,3.02809 -1.94665,4.97474 -1.94662,1.94663 -4.97474,1.94663 -3.02809,0 -4.97475,-1.94663 -1.94661,-1.94665 -1.94661,-4.97474 z"
         style="font-style:normal;font-variant:normal;font-weight:normal;font-stretch:normal;font-family:'_Layiji Kutlaimuu v 2.02';-inkscape-font-specification:'_Layiji Kutlaimuu v 2.02, ';fill:#000000;fill-opacity:1;stroke:none;stroke-opacity:1"
         id="path3345"
         inkscape:connector-curvature="0" />
    </g>
    <g
       transform="translate(240.09036,-283.72318)"
       style="font-style:normal;font-weight:normal;font-size:391.1137085px;line-height:125%;font-family:sans-serif;letter-spacing:0px;word-spacing:0px;fill:#000000;fill-opacity:1;stroke:none;stroke-width:1px;stroke-linecap:butt;stroke-linejoin:miter;stroke-opacity:1"
       id="text3340-8">
      <path
         d="m 190.53854,514.61813 q 0,-3.02808 1.94661,-4.97474 1.94664,-1.94664 4.97475,-1.94664 3.0281,0 4.97472,1.94664 1.94665,1.94666 1.94665,4.97474 0,3.02811 -1.94665,4.97476 -1.94662,1.94663 -4.97472,1.94663 -3.02811,0 -4.97475,-1.94663 -1.94661,-1.94665 -1.94661,-4.97476 z m 0,-20.7641 q 0,-3.02813 1.94661,-4.97476 1.94664,-1.94666 4.97475,-1.94666 3.0281,0 4.97472,1.94666 1.94665,1.94663 1.94665,4.97476 0,3.02809 -1.94665,4.97471 -1.94662,1.94663 -4.97472,1.94663 -3.02811,0 -4.97475,-1.94663 -1.94661,-1.94662 -1.94661,-4.97471 z m 0,-21.62936 q 0,-3.02807 1.94661,-4.97473 1.94664,-1.94663 4.97475,-1.94663 3.0281,0 4.97472,1.94663 1.94665,1.94666 1.94665,4.97473 0,3.02812 -1.94665,4.97477 -1.94662,1.94664 -4.97472,1.94664 -3.02811,0 -4.97475,-1.94664 -1.94661,-1.94665 -1.94661,-4.97477 z m 0,-20.76412 q 0,-3.02811 1.94661,-4.97474 1.94664,-1.94664 4.97475,-1.94664 3.0281,0 4.97472,1.94664 1.94665,1.94663 1.94665,4.97474 0,3.02811 -1.94665,4.97474 -1.94662,1.94663 -4.97472,1.94663 -3.02811,0 -4.97475,-1.94663 -1.94661,-1.94663 -1.94661,-4.97474 z m 0,-21.41303 q 0,-3.02808 1.94661,-4.97473 1.94664,-1.94665 4.97475,-1.94665 3.0281,0 4.97472,1.94665 1.94665,1.94665 1.94665,4.97473 0,3.02811 -1.94665,4.97476 -1.94662,1.94662 -4.97472,1.94662 -3.02811,0 -4.97475,-1.94662 -1.94661,-1.94665 -1.94661,-4.97476 z m 0,-20.76413 q 0,-3.02812 1.94661,-4.97476 1.94664,-1.94661 4.97475,-1.94661 3.0281,0 4.97472,1.94661 1.94665,1.94664 1.94665,4.97476 0,3.0281 -1.94665,4.97473 -1.94662,1.94664 -4.97472,1.94664 -3.02811,0 -4.97475,-1.94664 -1.94661,-1.94663 -1.94661,-4.97473 z m 0,-21.62931 q 0,-3.02813 1.94661,-4.97476 1.94664,-1.94663 4.97475,-1.94663 3.0281,0 4.97472,1.94663 1.94665,1.94663 1.94665,4.97476 0,3.02809 -1.94665,4.97472 -1.94662,1.94666 -4.97472,1.94666 -3.02811,0 -4.97475,-1.94666 -1.94661,-1.94663 -1.94661,-4.97472 z m -9.73323,-18.38492 q 0,-3.02811 1.94666,-4.97475 1.94663,-1.94665 4.97473,-1.94665 3.02812,0 4.97475,1.94665 1.94663,1.94664 1.94663,4.97475 0,3.02809 -1.94663,4.97475 -1.94663,1.94661 -4.97475,1.94661 -3.0281,0 -4.97473,-1.94661 -1.94666,-1.94666 -1.94666,-4.97475 z m -17.08715,-12.54502 q 0,-3.0281 1.94663,-4.97475 1.94665,-1.94662 4.97478,-1.94662 3.02808,0 4.97472,1.94662 1.94664,1.94665 1.94664,4.97475 0,3.0281 -1.94664,4.97474 -1.94664,1.94665 -4.97472,1.94665 -3.02813,0 -4.97478,-1.94665 -1.94663,-1.94664 -1.94663,-4.97474 z M 78.931258,514.61813 q 0,-3.02808 1.946639,-4.97474 1.946636,-1.94664 4.974745,-1.94664 3.028098,0 4.974739,1.94664 1.946641,1.94666 1.946641,4.97474 0,3.02811 -1.946641,4.97476 -1.946641,1.94663 -4.974739,1.94663 -3.028109,0 -4.974745,-1.94663 -1.946639,-1.94665 -1.946639,-4.97476 z m 0,-20.7641 q 0,-3.02813 1.946639,-4.97476 1.946636,-1.94666 4.974745,-1.94666 3.028098,0 4.974739,1.94666 1.946641,1.94663 1.946641,4.97476 0,3.02809 -1.946641,4.97471 -1.946641,1.94663 -4.974739,1.94663 -3.028109,0 -4.974745,-1.94663 -1.946639,-1.94662 -1.946639,-4.97471 z m 0,-21.62936 q 0,-3.02807 1.946639,-4.97473 1.946636,-1.94663 4.974745,-1.94663 3.028098,0 4.974739,1.94663 1.946641,1.94666 1.946641,4.97473 0,3.02812 -1.946641,4.97477 -1.946641,1.94664 -4.974739,1.94664 -3.028109,0 -4.974745,-1.94664 -1.946639,-1.94665 -1.946639,-4.97477 z m 0,-20.76412 q 0,-3.02811 1.946639,-4.97474 1.946636,-1.94664 4.974745,-1.94664 3.028098,0 4.974739,1.94664 1.946641,1.94663 1.946641,4.97474 0,3.02811 -1.946641,4.97474 -1.946641,1.94663 -4.974739,1.94663 -3.028109,0 -4.974745,-1.94663 -1.946639,-1.94663 -1.946639,-4.97474 z m 0,-21.41303 q 0,-3.02808 1.946639,-4.97473 1.946636,-1.94665 4.974745,-1.94665 3.028098,0 4.974739,1.94665 1.946641,1.94665 1.946641,4.97473 0,3.02811 -1.946641,4.97476 -1.946641,1.94662 -4.974739,1.94662 -3.028109,0 -4.974745,-1.94662 -1.946639,-1.94665 -1.946639,-4.97476 z m 1.946639,-20.11525 q 0,-3.02812 1.946636,-4.97475 1.946641,-1.94663 4.97475,-1.94663 3.028098,0 4.974739,1.94663 1.946632,1.94663 1.946632,4.97475 0,3.02809 -1.946632,4.97473 -1.946641,1.94665 -4.974739,1.94665 -3.028109,0 -4.97475,-1.94665 -1.946636,-1.94664 -1.946636,-4.97473 z m -1.946639,-22.27819 q 0,-3.02813 1.946639,-4.97476 1.946636,-1.94663 4.974745,-1.94663 3.028098,0 4.974739,1.94663 1.946641,1.94663 1.946641,4.97476 0,3.02809 -1.946641,4.97472 -1.946641,1.94666 -4.974739,1.94666 -3.028109,0 -4.974745,-1.94666 -1.946639,-1.94663 -1.946639,-4.97472 z m 19.466388,8.86803 q 0,-3.02814 1.946634,-4.97475 1.94664,-1.94666 4.97473,-1.94666 3.02812,0 4.97475,1.94666 1.94662,1.94661 1.94662,4.97475 0,3.02808 -1.94662,4.97472 -1.94663,1.94665 -4.97475,1.94665 -3.02809,0 -4.97473,-1.94665 -1.946634,-1.94664 -1.946634,-4.97472 z M 60.330048,378.56976 q 0,-3.02809 1.946637,-4.97475 1.94664,-1.94663 4.974744,-1.94663 3.028103,0 4.974743,1.94663 1.946635,1.94666 1.946635,4.97475 0,3.02808 -1.946635,4.97474 -1.94664,1.94663 -4.974743,1.94663 -3.028104,0 -4.974744,-1.94663 -1.946637,-1.94666 -1.946637,-4.97474 z M 76.33574,364.51071 q 0,-3.02813 1.946639,-4.97475 1.946637,-1.94664 4.974741,-1.94664 3.028109,0 4.97474,1.94664 1.946642,1.94662 1.946642,4.97475 0,3.02811 -1.946642,4.97472 -1.946631,1.94665 -4.97474,1.94665 -3.028104,0 -4.974741,-1.94665 -1.946639,-1.94661 -1.946639,-4.97472 z m 20.547846,-10.1658 q 0,-3.02807 1.946652,-4.97473 1.946632,-1.94664 4.974722,-1.94664 3.02811,0 4.97475,1.94664 1.94664,1.94666 1.94664,4.97473 0,3.02813 -1.94664,4.97477 -1.94664,1.94663 -4.97475,1.94663 -3.02809,0 -4.974722,-1.94663 -1.946652,-1.94664 -1.946652,-4.97477 z m 23.359634,-5.19103 q 0,-3.0281 1.94666,-4.97472 1.94664,-1.94665 4.97475,-1.94665 3.02811,0 4.97474,1.94665 1.94663,1.94662 1.94663,4.97472 0,3.02813 -1.94663,4.97475 -1.94663,1.94664 -4.97474,1.94664 -3.02811,0 -4.97475,-1.94664 -1.94666,-1.94662 -1.94666,-4.97475 z m 22.06193,1.51407 q 0,-3.02813 1.94661,-4.97473 1.94666,-1.94665 4.97475,-1.94665 3.02812,0 4.97474,1.94665 1.94665,1.9466 1.94665,4.97473 0,3.02809 -1.94665,4.97474 -1.94662,1.94663 -4.97474,1.94663 -3.02809,0 -4.97475,-1.94663 -1.94661,-1.94665 -1.94661,-4.97474 z"
         style="font-style:normal;font-variant:normal;font-weight:normal;font-stretch:normal;font-family:'_Layiji Kutlaimuu v 2.02';-inkscape-font-specification:'_Layiji Kutlaimuu v 2.02, ';fill:#000000;fill-opacity:1;stroke:none;stroke-opacity:1"
         id="path3345-9"
         inkscape:connector-curvature="0" />
    </g>
    <g
       transform="translate(499.71514,-283.72318)"
       style="font-style:normal;font-weight:normal;font-size:391.1137085px;line-height:125%;font-family:sans-serif;letter-spacing:0px;word-spacing:0px;fill:#000000;fill-opacity:1;stroke:none;stroke-width:1px;stroke-linecap:butt;stroke-linejoin:miter;stroke-opacity:1"
       id="text3340-82">
      <path
         d="m 190.53854,514.61813 q 0,-3.02808 1.94661,-4.97474 1.94664,-1.94664 4.97475,-1.94664 3.0281,0 4.97472,1.94664 1.94665,1.94666 1.94665,4.97474 0,3.02811 -1.94665,4.97476 -1.94662,1.94663 -4.97472,1.94663 -3.02811,0 -4.97475,-1.94663 -1.94661,-1.94665 -1.94661,-4.97476 z m 0,-20.7641 q 0,-3.02813 1.94661,-4.97476 1.94664,-1.94666 4.97475,-1.94666 3.0281,0 4.97472,1.94666 1.94665,1.94663 1.94665,4.97476 0,3.02809 -1.94665,4.97471 -1.94662,1.94663 -4.97472,1.94663 -3.02811,0 -4.97475,-1.94663 -1.94661,-1.94662 -1.94661,-4.97471 z m 0,-21.62936 q 0,-3.02807 1.94661,-4.97473 1.94664,-1.94663 4.97475,-1.94663 3.0281,0 4.97472,1.94663 1.94665,1.94666 1.94665,4.97473 0,3.02812 -1.94665,4.97477 -1.94662,1.94664 -4.97472,1.94664 -3.02811,0 -4.97475,-1.94664 -1.94661,-1.94665 -1.94661,-4.97477 z m 0,-20.76412 q 0,-3.02811 1.94661,-4.97474 1.94664,-1.94664 4.97475,-1.94664 3.0281,0 4.97472,1.94664 1.94665,1.94663 1.94665,4.97474 0,3.02811 -1.94665,4.97474 -1.94662,1.94663 -4.97472,1.94663 -3.02811,0 -4.97475,-1.94663 -1.94661,-1.94663 -1.94661,-4.97474 z m 0,-21.41303 q 0,-3.02808 1.94661,-4.97473 1.94664,-1.94665 4.97475,-1.94665 3.0281,0 4.97472,1.94665 1.94665,1.94665 1.94665,4.97473 0,3.02811 -1.94665,4.97476 -1.94662,1.94662 -4.97472,1.94662 -3.02811,0 -4.97475,-1.94662 -1.94661,-1.94665 -1.94661,-4.97476 z m 0,-20.76413 q 0,-3.02812 1.94661,-4.97476 1.94664,-1.94661 4.97475,-1.94661 3.0281,0 4.97472,1.94661 1.94665,1.94664 1.94665,4.97476 0,3.0281 -1.94665,4.97473 -1.94662,1.94664 -4.97472,1.94664 -3.02811,0 -4.97475,-1.94664 -1.94661,-1.94663 -1.94661,-4.97473 z m 0,-21.62931 q 0,-3.02813 1.94661,-4.97476 1.94664,-1.94663 4.97475,-1.94663 3.0281,0 4.97472,1.94663 1.94665,1.94663 1.94665,4.97476 0,3.02809 -1.94665,4.97472 -1.94662,1.94666 -4.97472,1.94666 -3.02811,0 -4.97475,-1.94666 -1.94661,-1.94663 -1.94661,-4.97472 z m -9.73323,-18.38492 q 0,-3.02811 1.94666,-4.97475 1.94663,-1.94665 4.97473,-1.94665 3.02812,0 4.97475,1.94665 1.94663,1.94664 1.94663,4.97475 0,3.02809 -1.94663,4.97475 -1.94663,1.94661 -4.97475,1.94661 -3.0281,0 -4.97473,-1.94661 -1.94666,-1.94666 -1.94666,-4.97475 z m -17.08715,-12.54502 q 0,-3.0281 1.94663,-4.97475 1.94665,-1.94662 4.97478,-1.94662 3.02808,0 4.97472,1.94662 1.94664,1.94665 1.94664,4.97475 0,3.0281 -1.94664,4.97474 -1.94664,1.94665 -4.97472,1.94665 -3.02813,0 -4.97478,-1.94665 -1.94663,-1.94664 -1.94663,-4.97474 z M 78.931258,514.61813 q 0,-3.02808 1.946639,-4.97474 1.946636,-1.94664 4.974745,-1.94664 3.028098,0 4.974739,1.94664 1.946641,1.94666 1.946641,4.97474 0,3.02811 -1.946641,4.97476 -1.946641,1.94663 -4.974739,1.94663 -3.028109,0 -4.974745,-1.94663 -1.946639,-1.94665 -1.946639,-4.97476 z m 0,-20.7641 q 0,-3.02813 1.946639,-4.97476 1.946636,-1.94666 4.974745,-1.94666 3.028098,0 4.974739,1.94666 1.946641,1.94663 1.946641,4.97476 0,3.02809 -1.946641,4.97471 -1.946641,1.94663 -4.974739,1.94663 -3.028109,0 -4.974745,-1.94663 -1.946639,-1.94662 -1.946639,-4.97471 z m 0,-21.62936 q 0,-3.02807 1.946639,-4.97473 1.946636,-1.94663 4.974745,-1.94663 3.028098,0 4.974739,1.94663 1.946641,1.94666 1.946641,4.97473 0,3.02812 -1.946641,4.97477 -1.946641,1.94664 -4.974739,1.94664 -3.028109,0 -4.974745,-1.94664 -1.946639,-1.94665 -1.946639,-4.97477 z m 0,-20.76412 q 0,-3.02811 1.946639,-4.97474 1.946636,-1.94664 4.974745,-1.94664 3.028098,0 4.974739,1.94664 1.946641,1.94663 1.946641,4.97474 0,3.02811 -1.946641,4.97474 -1.946641,1.94663 -4.974739,1.94663 -3.028109,0 -4.974745,-1.94663 -1.946639,-1.94663 -1.946639,-4.97474 z m 0,-21.41303 q 0,-3.02808 1.946639,-4.97473 1.946636,-1.94665 4.974745,-1.94665 3.028098,0 4.974739,1.94665 1.946641,1.94665 1.946641,4.97473 0,3.02811 -1.946641,4.97476 -1.946641,1.94662 -4.974739,1.94662 -3.028109,0 -4.974745,-1.94662 -1.946639,-1.94665 -1.946639,-4.97476 z m 1.946639,-20.11525 q 0,-3.02812 1.946636,-4.97475 1.946641,-1.94663 4.97475,-1.94663 3.028098,0 4.974739,1.94663 1.946632,1.94663 1.946632,4.97475 0,3.02809 -1.946632,4.97473 -1.946641,1.94665 -4.974739,1.94665 -3.028109,0 -4.97475,-1.94665 -1.946636,-1.94664 -1.946636,-4.97473 z m -1.946639,-22.27819 q 0,-3.02813 1.946639,-4.97476 1.946636,-1.94663 4.974745,-1.94663 3.028098,0 4.974739,1.94663 1.946641,1.94663 1.946641,4.97476 0,3.02809 -1.946641,4.97472 -1.946641,1.94666 -4.974739,1.94666 -3.028109,0 -4.974745,-1.94666 -1.946639,-1.94663 -1.946639,-4.97472 z m 19.466388,8.86803 q 0,-3.02814 1.946634,-4.97475 1.94664,-1.94666 4.97473,-1.94666 3.02812,0 4.97475,1.94666 1.94662,1.94661 1.94662,4.97475 0,3.02808 -1.94662,4.97472 -1.94663,1.94665 -4.97475,1.94665 -3.02809,0 -4.97473,-1.94665 -1.946634,-1.94664 -1.946634,-4.97472 z M 60.330048,378.56976 q 0,-3.02809 1.946637,-4.97475 1.94664,-1.94663 4.974744,-1.94663 3.028103,0 4.974743,1.94663 1.946635,1.94666 1.946635,4.97475 0,3.02808 -1.946635,4.97474 -1.94664,1.94663 -4.974743,1.94663 -3.028104,0 -4.974744,-1.94663 -1.946637,-1.94666 -1.946637,-4.97474 z M 76.33574,364.51071 q 0,-3.02813 1.946639,-4.97475 1.946637,-1.94664 4.974741,-1.94664 3.028109,0 4.97474,1.94664 1.946642,1.94662 1.946642,4.97475 0,3.02811 -1.946642,4.97472 -1.946631,1.94665 -4.97474,1.94665 -3.028104,0 -4.974741,-1.94665 -1.946639,-1.94661 -1.946639,-4.97472 z m 20.547846,-10.1658 q 0,-3.02807 1.946652,-4.97473 1.946632,-1.94664 4.974722,-1.94664 3.02811,0 4.97475,1.94664 1.94664,1.94666 1.94664,4.97473 0,3.02813 -1.94664,4.97477 -1.94664,1.94663 -4.97475,1.94663 -3.02809,0 -4.974722,-1.94663 -1.946652,-1.94664 -1.946652,-4.97477 z m 23.359634,-5.19103 q 0,-3.0281 1.94666,-4.97472 1.94664,-1.94665 4.97475,-1.94665 3.02811,0 4.97474,1.94665 1.94663,1.94662 1.94663,4.97472 0,3.02813 -1.94663,4.97475 -1.94663,1.94664 -4.97474,1.94664 -3.02811,0 -4.97475,-1.94664 -1.94666,-1.94662 -1.94666,-4.97475 z m 22.06193,1.51407 q 0,-3.02813 1.94661,-4.97473 1.94666,-1.94665 4.97475,-1.94665 3.02812,0 4.97474,1.94665 1.94665,1.9466 1.94665,4.97473 0,3.02809 -1.94665,4.97474 -1.94662,1.94663 -4.97474,1.94663 -3.02809,0 -4.97475,-1.94663 -1.94661,-1.94665 -1.94661,-4.97474 z"
         style="font-style:normal;font-variant:normal;font-weight:normal;font-stretch:normal;font-family:'_Layiji Kutlaimuu v 2.02';-inkscape-font-specification:'_Layiji Kutlaimuu v 2.02, ';fill:#000000;fill-opacity:1;stroke:none;stroke-opacity:1"
         id="path3345-7"
         inkscape:connector-curvature="0" />
    </g>
    <g
       transform="translate(759.33992,-283.72318)"
       style="font-style:normal;font-weight:normal;font-size:391.1137085px;line-height:125%;font-family:sans-serif;letter-spacing:0px;word-spacing:0px;fill:#000000;fill-opacity:1;stroke:none;stroke-width:1px;stroke-linecap:butt;stroke-linejoin:miter;stroke-opacity:1"
       id="text3340-4">
      <path
         d="m 190.53854,514.61813 q 0,-3.02808 1.94661,-4.97474 1.94664,-1.94664 4.97475,-1.94664 3.0281,0 4.97472,1.94664 1.94665,1.94666 1.94665,4.97474 0,3.02811 -1.94665,4.97476 -1.94662,1.94663 -4.97472,1.94663 -3.02811,0 -4.97475,-1.94663 -1.94661,-1.94665 -1.94661,-4.97476 z m 0,-20.7641 q 0,-3.02813 1.94661,-4.97476 1.94664,-1.94666 4.97475,-1.94666 3.0281,0 4.97472,1.94666 1.94665,1.94663 1.94665,4.97476 0,3.02809 -1.94665,4.97471 -1.94662,1.94663 -4.97472,1.94663 -3.02811,0 -4.97475,-1.94663 -1.94661,-1.94662 -1.94661,-4.97471 z m 0,-21.62936 q 0,-3.02807 1.94661,-4.97473 1.94664,-1.94663 4.97475,-1.94663 3.0281,0 4.97472,1.94663 1.94665,1.94666 1.94665,4.97473 0,3.02812 -1.94665,4.97477 -1.94662,1.94664 -4.97472,1.94664 -3.02811,0 -4.97475,-1.94664 -1.94661,-1.94665 -1.94661,-4.97477 z m 0,-20.76412 q 0,-3.02811 1.94661,-4.97474 1.94664,-1.94664 4.97475,-1.94664 3.0281,0 4.97472,1.94664 1.94665,1.94663 1.94665,4.97474 0,3.02811 -1.94665,4.97474 -1.94662,1.94663 -4.97472,1.94663 -3.02811,0 -4.97475,-1.94663 -1.94661,-1.94663 -1.94661,-4.97474 z m 0,-21.41303 q 0,-3.02808 1.94661,-4.97473 1.94664,-1.94665 4.97475,-1.94665 3.0281,0 4.97472,1.94665 1.94665,1.94665 1.94665,4.97473 0,3.02811 -1.94665,4.97476 -1.94662,1.94662 -4.97472,1.94662 -3.02811,0 -4.97475,-1.94662 -1.94661,-1.94665 -1.94661,-4.97476 z m 0,-20.76413 q 0,-3.02812 1.94661,-4.97476 1.94664,-1.94661 4.97475,-1.94661 3.0281,0 4.97472,1.94661 1.94665,1.94664 1.94665,4.97476 0,3.0281 -1.94665,4.97473 -1.94662,1.94664 -4.97472,1.94664 -3.02811,0 -4.97475,-1.94664 -1.94661,-1.94663 -1.94661,-4.97473 z m 0,-21.62931 q 0,-3.02813 1.94661,-4.97476 1.94664,-1.94663 4.97475,-1.94663 3.0281,0 4.97472,1.94663 1.94665,1.94663 1.94665,4.97476 0,3.02809 -1.94665,4.97472 -1.94662,1.94666 -4.97472,1.94666 -3.02811,0 -4.97475,-1.94666 -1.94661,-1.94663 -1.94661,-4.97472 z m -9.73323,-18.38492 q 0,-3.02811 1.94666,-4.97475 1.94663,-1.94665 4.97473,-1.94665 3.02812,0 4.97475,1.94665 1.94663,1.94664 1.94663,4.97475 0,3.02809 -1.94663,4.97475 -1.94663,1.94661 -4.97475,1.94661 -3.0281,0 -4.97473,-1.94661 -1.94666,-1.94666 -1.94666,-4.97475 z m -17.08715,-12.54502 q 0,-3.0281 1.94663,-4.97475 1.94665,-1.94662 4.97478,-1.94662 3.02808,0 4.97472,1.94662 1.94664,1.94665 1.94664,4.97475 0,3.0281 -1.94664,4.97474 -1.94664,1.94665 -4.97472,1.94665 -3.02813,0 -4.97478,-1.94665 -1.94663,-1.94664 -1.94663,-4.97474 z M 78.931258,514.61813 q 0,-3.02808 1.946639,-4.97474 1.946636,-1.94664 4.974745,-1.94664 3.028098,0 4.974739,1.94664 1.946641,1.94666 1.946641,4.97474 0,3.02811 -1.946641,4.97476 -1.946641,1.94663 -4.974739,1.94663 -3.028109,0 -4.974745,-1.94663 -1.946639,-1.94665 -1.946639,-4.97476 z m 0,-20.7641 q 0,-3.02813 1.946639,-4.97476 1.946636,-1.94666 4.974745,-1.94666 3.028098,0 4.974739,1.94666 1.946641,1.94663 1.946641,4.97476 0,3.02809 -1.946641,4.97471 -1.946641,1.94663 -4.974739,1.94663 -3.028109,0 -4.974745,-1.94663 -1.946639,-1.94662 -1.946639,-4.97471 z m 0,-21.62936 q 0,-3.02807 1.946639,-4.97473 1.946636,-1.94663 4.974745,-1.94663 3.028098,0 4.974739,1.94663 1.946641,1.94666 1.946641,4.97473 0,3.02812 -1.946641,4.97477 -1.946641,1.94664 -4.974739,1.94664 -3.028109,0 -4.974745,-1.94664 -1.946639,-1.94665 -1.946639,-4.97477 z m 0,-20.76412 q 0,-3.02811 1.946639,-4.97474 1.946636,-1.94664 4.974745,-1.94664 3.028098,0 4.974739,1.94664 1.946641,1.94663 1.946641,4.97474 0,3.02811 -1.946641,4.97474 -1.946641,1.94663 -4.974739,1.94663 -3.028109,0 -4.974745,-1.94663 -1.946639,-1.94663 -1.946639,-4.97474 z m 0,-21.41303 q 0,-3.02808 1.946639,-4.97473 1.946636,-1.94665 4.974745,-1.94665 3.028098,0 4.974739,1.94665 1.946641,1.94665 1.946641,4.97473 0,3.02811 -1.946641,4.97476 -1.946641,1.94662 -4.974739,1.94662 -3.028109,0 -4.974745,-1.94662 -1.946639,-1.94665 -1.946639,-4.97476 z m 1.946639,-20.11525 q 0,-3.02812 1.946636,-4.97475 1.946641,-1.94663 4.97475,-1.94663 3.028098,0 4.974739,1.94663 1.946632,1.94663 1.946632,4.97475 0,3.02809 -1.946632,4.97473 -1.946641,1.94665 -4.974739,1.94665 -3.028109,0 -4.97475,-1.94665 -1.946636,-1.94664 -1.946636,-4.97473 z m -1.946639,-22.27819 q 0,-3.02813 1.946639,-4.97476 1.946636,-1.94663 4.974745,-1.94663 3.028098,0 4.974739,1.94663 1.946641,1.94663 1.946641,4.97476 0,3.02809 -1.946641,4.97472 -1.946641,1.94666 -4.974739,1.94666 -3.028109,0 -4.974745,-1.94666 -1.946639,-1.94663 -1.946639,-4.97472 z m 19.466388,8.86803 q 0,-3.02814 1.946634,-4.97475 1.94664,-1.94666 4.97473,-1.94666 3.02812,0 4.97475,1.94666 1.94662,1.94661 1.94662,4.97475 0,3.02808 -1.94662,4.97472 -1.94663,1.94665 -4.97475,1.94665 -3.02809,0 -4.97473,-1.94665 -1.946634,-1.94664 -1.946634,-4.97472 z M 60.330048,378.56976 q 0,-3.02809 1.946637,-4.97475 1.94664,-1.94663 4.974744,-1.94663 3.028103,0 4.974743,1.94663 1.946635,1.94666 1.946635,4.97475 0,3.02808 -1.946635,4.97474 -1.94664,1.94663 -4.974743,1.94663 -3.028104,0 -4.974744,-1.94663 -1.946637,-1.94666 -1.946637,-4.97474 z M 76.33574,364.51071 q 0,-3.02813 1.946639,-4.97475 1.946637,-1.94664 4.974741,-1.94664 3.028109,0 4.97474,1.94664 1.946642,1.94662 1.946642,4.97475 0,3.02811 -1.946642,4.97472 -1.946631,1.94665 -4.97474,1.94665 -3.028104,0 -4.974741,-1.94665 -1.946639,-1.94661 -1.946639,-4.97472 z m 20.547846,-10.1658 q 0,-3.02807 1.946652,-4.97473 1.946632,-1.94664 4.974722,-1.94664 3.02811,0 4.97475,1.94664 1.94664,1.94666 1.94664,4.97473 0,3.02813 -1.94664,4.97477 -1.94664,1.94663 -4.97475,1.94663 -3.02809,0 -4.974722,-1.94663 -1.946652,-1.94664 -1.946652,-4.97477 z m 23.359634,-5.19103 q 0,-3.0281 1.94666,-4.97472 1.94664,-1.94665 4.97475,-1.94665 3.02811,0 4.97474,1.94665 1.94663,1.94662 1.94663,4.97472 0,3.02813 -1.94663,4.97475 -1.94663,1.94664 -4.97474,1.94664 -3.02811,0 -4.97475,-1.94664 -1.94666,-1.94662 -1.94666,-4.97475 z m 22.06193,1.51407 q 0,-3.02813 1.94661,-4.97473 1.94666,-1.94665 4.97475,-1.94665 3.02812,0 4.97474,1.94665 1.94665,1.9466 1.94665,4.97473 0,3.02809 -1.94665,4.97474 -1.94662,1.94663 -4.97474,1.94663 -3.02809,0 -4.97475,-1.94663 -1.94661,-1.94665 -1.94661,-4.97474 z"
         style="font-style:normal;font-variant:normal;font-weight:normal;font-stretch:normal;font-family:'_Layiji Kutlaimuu v 2.02';-inkscape-font-specification:'_Layiji Kutlaimuu v 2.02, ';fill:#000000;fill-opacity:1;stroke:none;stroke-opacity:1"
         id="path3345-3"
         inkscape:connector-curvature="0" />
    </g>
    <g
       transform="translate(-0.50433096,-44.487787)"
       style="font-style:normal;font-weight:normal;font-size:391.1137085px;line-height:125%;font-family:sans-serif;letter-spacing:0px;word-spacing:0px;fill:#000000;fill-opacity:1;stroke:none;stroke-width:1px;stroke-linecap:butt;stroke-linejoin:miter;stroke-opacity:1"
       id="text3340-1">
      <path
         d="m 190.53854,514.61813 q 0,-3.02808 1.94661,-4.97474 1.94664,-1.94664 4.97475,-1.94664 3.0281,0 4.97472,1.94664 1.94665,1.94666 1.94665,4.97474 0,3.02811 -1.94665,4.97476 -1.94662,1.94663 -4.97472,1.94663 -3.02811,0 -4.97475,-1.94663 -1.94661,-1.94665 -1.94661,-4.97476 z m 0,-20.7641 q 0,-3.02813 1.94661,-4.97476 1.94664,-1.94666 4.97475,-1.94666 3.0281,0 4.97472,1.94666 1.94665,1.94663 1.94665,4.97476 0,3.02809 -1.94665,4.97471 -1.94662,1.94663 -4.97472,1.94663 -3.02811,0 -4.97475,-1.94663 -1.94661,-1.94662 -1.94661,-4.97471 z m 0,-21.62936 q 0,-3.02807 1.94661,-4.97473 1.94664,-1.94663 4.97475,-1.94663 3.0281,0 4.97472,1.94663 1.94665,1.94666 1.94665,4.97473 0,3.02812 -1.94665,4.97477 -1.94662,1.94664 -4.97472,1.94664 -3.02811,0 -4.97475,-1.94664 -1.94661,-1.94665 -1.94661,-4.97477 z m 0,-20.76412 q 0,-3.02811 1.94661,-4.97474 1.94664,-1.94664 4.97475,-1.94664 3.0281,0 4.97472,1.94664 1.94665,1.94663 1.94665,4.97474 0,3.02811 -1.94665,4.97474 -1.94662,1.94663 -4.97472,1.94663 -3.02811,0 -4.97475,-1.94663 -1.94661,-1.94663 -1.94661,-4.97474 z m 0,-21.41303 q 0,-3.02808 1.94661,-4.97473 1.94664,-1.94665 4.97475,-1.94665 3.0281,0 4.97472,1.94665 1.94665,1.94665 1.94665,4.97473 0,3.02811 -1.94665,4.97476 -1.94662,1.94662 -4.97472,1.94662 -3.02811,0 -4.97475,-1.94662 -1.94661,-1.94665 -1.94661,-4.97476 z m 0,-20.76413 q 0,-3.02812 1.94661,-4.97476 1.94664,-1.94661 4.97475,-1.94661 3.0281,0 4.97472,1.94661 1.94665,1.94664 1.94665,4.97476 0,3.0281 -1.94665,4.97473 -1.94662,1.94664 -4.97472,1.94664 -3.02811,0 -4.97475,-1.94664 -1.94661,-1.94663 -1.94661,-4.97473 z m 0,-21.62931 q 0,-3.02813 1.94661,-4.97476 1.94664,-1.94663 4.97475,-1.94663 3.0281,0 4.97472,1.94663 1.94665,1.94663 1.94665,4.97476 0,3.02809 -1.94665,4.97472 -1.94662,1.94666 -4.97472,1.94666 -3.02811,0 -4.97475,-1.94666 -1.94661,-1.94663 -1.94661,-4.97472 z m -9.73323,-18.38492 q 0,-3.02811 1.94666,-4.97475 1.94663,-1.94665 4.97473,-1.94665 3.02812,0 4.97475,1.94665 1.94663,1.94664 1.94663,4.97475 0,3.02809 -1.94663,4.97475 -1.94663,1.94661 -4.97475,1.94661 -3.0281,0 -4.97473,-1.94661 -1.94666,-1.94666 -1.94666,-4.97475 z m -17.08715,-12.54502 q 0,-3.0281 1.94663,-4.97475 1.94665,-1.94662 4.97478,-1.94662 3.02808,0 4.97472,1.94662 1.94664,1.94665 1.94664,4.97475 0,3.0281 -1.94664,4.97474 -1.94664,1.94665 -4.97472,1.94665 -3.02813,0 -4.97478,-1.94665 -1.94663,-1.94664 -1.94663,-4.97474 z M 78.931258,514.61813 q 0,-3.02808 1.946639,-4.97474 1.946636,-1.94664 4.974745,-1.94664 3.028098,0 4.974739,1.94664 1.946641,1.94666 1.946641,4.97474 0,3.02811 -1.946641,4.97476 -1.946641,1.94663 -4.974739,1.94663 -3.028109,0 -4.974745,-1.94663 -1.946639,-1.94665 -1.946639,-4.97476 z m 0,-20.7641 q 0,-3.02813 1.946639,-4.97476 1.946636,-1.94666 4.974745,-1.94666 3.028098,0 4.974739,1.94666 1.946641,1.94663 1.946641,4.97476 0,3.02809 -1.946641,4.97471 -1.946641,1.94663 -4.974739,1.94663 -3.028109,0 -4.974745,-1.94663 -1.946639,-1.94662 -1.946639,-4.97471 z m 0,-21.62936 q 0,-3.02807 1.946639,-4.97473 1.946636,-1.94663 4.974745,-1.94663 3.028098,0 4.974739,1.94663 1.946641,1.94666 1.946641,4.97473 0,3.02812 -1.946641,4.97477 -1.946641,1.94664 -4.974739,1.94664 -3.028109,0 -4.974745,-1.94664 -1.946639,-1.94665 -1.946639,-4.97477 z m 0,-20.76412 q 0,-3.02811 1.946639,-4.97474 1.946636,-1.94664 4.974745,-1.94664 3.028098,0 4.974739,1.94664 1.946641,1.94663 1.946641,4.97474 0,3.02811 -1.946641,4.97474 -1.946641,1.94663 -4.974739,1.94663 -3.028109,0 -4.974745,-1.94663 -1.946639,-1.94663 -1.946639,-4.97474 z m 0,-21.41303 q 0,-3.02808 1.946639,-4.97473 1.946636,-1.94665 4.974745,-1.94665 3.028098,0 4.974739,1.94665 1.946641,1.94665 1.946641,4.97473 0,3.02811 -1.946641,4.97476 -1.946641,1.94662 -4.974739,1.94662 -3.028109,0 -4.974745,-1.94662 -1.946639,-1.94665 -1.946639,-4.97476 z m 1.946639,-20.11525 q 0,-3.02812 1.946636,-4.97475 1.946641,-1.94663 4.97475,-1.94663 3.028098,0 4.974739,1.94663 1.946632,1.94663 1.946632,4.97475 0,3.02809 -1.946632,4.97473 -1.946641,1.94665 -4.974739,1.94665 -3.028109,0 -4.97475,-1.94665 -1.946636,-1.94664 -1.946636,-4.97473 z m -1.946639,-22.27819 q 0,-3.02813 1.946639,-4.97476 1.946636,-1.94663 4.974745,-1.94663 3.028098,0 4.974739,1.94663 1.946641,1.94663 1.946641,4.97476 0,3.02809 -1.946641,4.97472 -1.946641,1.94666 -4.974739,1.94666 -3.028109,0 -4.974745,-1.94666 -1.946639,-1.94663 -1.946639,-4.97472 z m 19.466388,8.86803 q 0,-3.02814 1.946634,-4.97475 1.94664,-1.94666 4.97473,-1.94666 3.02812,0 4.97475,1.94666 1.94662,1.94661 1.94662,4.97475 0,3.02808 -1.94662,4.97472 -1.94663,1.94665 -4.97475,1.94665 -3.02809,0 -4.97473,-1.94665 -1.946634,-1.94664 -1.946634,-4.97472 z M 60.330048,378.56976 q 0,-3.02809 1.946637,-4.97475 1.94664,-1.94663 4.974744,-1.94663 3.028103,0 4.974743,1.94663 1.946635,1.94666 1.946635,4.97475 0,3.02808 -1.946635,4.97474 -1.94664,1.94663 -4.974743,1.94663 -3.028104,0 -4.974744,-1.94663 -1.946637,-1.94666 -1.946637,-4.97474 z M 76.33574,364.51071 q 0,-3.02813 1.946639,-4.97475 1.946637,-1.94664 4.974741,-1.94664 3.028109,0 4.97474,1.94664 1.946642,1.94662 1.946642,4.97475 0,3.02811 -1.946642,4.97472 -1.946631,1.94665 -4.97474,1.94665 -3.028104,0 -4.974741,-1.94665 -1.946639,-1.94661 -1.946639,-4.97472 z m 20.547846,-10.1658 q 0,-3.02807 1.946652,-4.97473 1.946632,-1.94664 4.974722,-1.94664 3.02811,0 4.97475,1.94664 1.94664,1.94666 1.94664,4.97473 0,3.02813 -1.94664,4.97477 -1.94664,1.94663 -4.97475,1.94663 -3.02809,0 -4.974722,-1.94663 -1.946652,-1.94664 -1.946652,-4.97477 z m 23.359634,-5.19103 q 0,-3.0281 1.94666,-4.97472 1.94664,-1.94665 4.97475,-1.94665 3.02811,0 4.97474,1.94665 1.94663,1.94662 1.94663,4.97472 0,3.02813 -1.94663,4.97475 -1.94663,1.94664 -4.97474,1.94664 -3.02811,0 -4.97475,-1.94664 -1.94666,-1.94662 -1.94666,-4.97475 z m 22.06193,1.51407 q 0,-3.02813 1.94661,-4.97473 1.94666,-1.94665 4.97475,-1.94665 3.02812,0 4.97474,1.94665 1.94665,1.9466 1.94665,4.97473 0,3.02809 -1.94665,4.97474 -1.94662,1.94663 -4.97474,1.94663 -3.02809,0 -4.97475,-1.94663 -1.94661,-1.94665 -1.94661,-4.97474 z"
         style="font-style:normal;font-variant:normal;font-weight:normal;font-stretch:normal;font-family:'_Layiji Kutlaimuu v 2.02';-inkscape-font-specification:'_Layiji Kutlaimuu v 2.02, ';fill:#000000;fill-opacity:1;stroke:none;stroke-opacity:1"
         id="path3345-97"
         inkscape:connector-curvature="0" />
    </g>
    <g
       transform="translate(240.09037,-44.487786)"
       style="font-style:normal;font-weight:normal;font-size:391.1137085px;line-height:125%;font-family:sans-serif;letter-spacing:0px;word-spacing:0px;fill:#000000;fill-opacity:1;stroke:none;stroke-width:1px;stroke-linecap:butt;stroke-linejoin:miter;stroke-opacity:1"
       id="text3340-48">
      <path
         d="m 190.53854,514.61813 q 0,-3.02808 1.94661,-4.97474 1.94664,-1.94664 4.97475,-1.94664 3.0281,0 4.97472,1.94664 1.94665,1.94666 1.94665,4.97474 0,3.02811 -1.94665,4.97476 -1.94662,1.94663 -4.97472,1.94663 -3.02811,0 -4.97475,-1.94663 -1.94661,-1.94665 -1.94661,-4.97476 z m 0,-20.7641 q 0,-3.02813 1.94661,-4.97476 1.94664,-1.94666 4.97475,-1.94666 3.0281,0 4.97472,1.94666 1.94665,1.94663 1.94665,4.97476 0,3.02809 -1.94665,4.97471 -1.94662,1.94663 -4.97472,1.94663 -3.02811,0 -4.97475,-1.94663 -1.94661,-1.94662 -1.94661,-4.97471 z m 0,-21.62936 q 0,-3.02807 1.94661,-4.97473 1.94664,-1.94663 4.97475,-1.94663 3.0281,0 4.97472,1.94663 1.94665,1.94666 1.94665,4.97473 0,3.02812 -1.94665,4.97477 -1.94662,1.94664 -4.97472,1.94664 -3.02811,0 -4.97475,-1.94664 -1.94661,-1.94665 -1.94661,-4.97477 z m 0,-20.76412 q 0,-3.02811 1.94661,-4.97474 1.94664,-1.94664 4.97475,-1.94664 3.0281,0 4.97472,1.94664 1.94665,1.94663 1.94665,4.97474 0,3.02811 -1.94665,4.97474 -1.94662,1.94663 -4.97472,1.94663 -3.02811,0 -4.97475,-1.94663 -1.94661,-1.94663 -1.94661,-4.97474 z m 0,-21.41303 q 0,-3.02808 1.94661,-4.97473 1.94664,-1.94665 4.97475,-1.94665 3.0281,0 4.97472,1.94665 1.94665,1.94665 1.94665,4.97473 0,3.02811 -1.94665,4.97476 -1.94662,1.94662 -4.97472,1.94662 -3.02811,0 -4.97475,-1.94662 -1.94661,-1.94665 -1.94661,-4.97476 z m 0,-20.76413 q 0,-3.02812 1.94661,-4.97476 1.94664,-1.94661 4.97475,-1.94661 3.0281,0 4.97472,1.94661 1.94665,1.94664 1.94665,4.97476 0,3.0281 -1.94665,4.97473 -1.94662,1.94664 -4.97472,1.94664 -3.02811,0 -4.97475,-1.94664 -1.94661,-1.94663 -1.94661,-4.97473 z m 0,-21.62931 q 0,-3.02813 1.94661,-4.97476 1.94664,-1.94663 4.97475,-1.94663 3.0281,0 4.97472,1.94663 1.94665,1.94663 1.94665,4.97476 0,3.02809 -1.94665,4.97472 -1.94662,1.94666 -4.97472,1.94666 -3.02811,0 -4.97475,-1.94666 -1.94661,-1.94663 -1.94661,-4.97472 z m -9.73323,-18.38492 q 0,-3.02811 1.94666,-4.97475 1.94663,-1.94665 4.97473,-1.94665 3.02812,0 4.97475,1.94665 1.94663,1.94664 1.94663,4.97475 0,3.02809 -1.94663,4.97475 -1.94663,1.94661 -4.97475,1.94661 -3.0281,0 -4.97473,-1.94661 -1.94666,-1.94666 -1.94666,-4.97475 z m -17.08715,-12.54502 q 0,-3.0281 1.94663,-4.97475 1.94665,-1.94662 4.97478,-1.94662 3.02808,0 4.97472,1.94662 1.94664,1.94665 1.94664,4.97475 0,3.0281 -1.94664,4.97474 -1.94664,1.94665 -4.97472,1.94665 -3.02813,0 -4.97478,-1.94665 -1.94663,-1.94664 -1.94663,-4.97474 z M 78.931258,514.61813 q 0,-3.02808 1.946639,-4.97474 1.946636,-1.94664 4.974745,-1.94664 3.028098,0 4.974739,1.94664 1.946641,1.94666 1.946641,4.97474 0,3.02811 -1.946641,4.97476 -1.946641,1.94663 -4.974739,1.94663 -3.028109,0 -4.974745,-1.94663 -1.946639,-1.94665 -1.946639,-4.97476 z m 0,-20.7641 q 0,-3.02813 1.946639,-4.97476 1.946636,-1.94666 4.974745,-1.94666 3.028098,0 4.974739,1.94666 1.946641,1.94663 1.946641,4.97476 0,3.02809 -1.946641,4.97471 -1.946641,1.94663 -4.974739,1.94663 -3.028109,0 -4.974745,-1.94663 -1.946639,-1.94662 -1.946639,-4.97471 z m 0,-21.62936 q 0,-3.02807 1.946639,-4.97473 1.946636,-1.94663 4.974745,-1.94663 3.028098,0 4.974739,1.94663 1.946641,1.94666 1.946641,4.97473 0,3.02812 -1.946641,4.97477 -1.946641,1.94664 -4.974739,1.94664 -3.028109,0 -4.974745,-1.94664 -1.946639,-1.94665 -1.946639,-4.97477 z m 0,-20.76412 q 0,-3.02811 1.946639,-4.97474 1.946636,-1.94664 4.974745,-1.94664 3.028098,0 4.974739,1.94664 1.946641,1.94663 1.946641,4.97474 0,3.02811 -1.946641,4.97474 -1.946641,1.94663 -4.974739,1.94663 -3.028109,0 -4.974745,-1.94663 -1.946639,-1.94663 -1.946639,-4.97474 z m 0,-21.41303 q 0,-3.02808 1.946639,-4.97473 1.946636,-1.94665 4.974745,-1.94665 3.028098,0 4.974739,1.94665 1.946641,1.94665 1.946641,4.97473 0,3.02811 -1.946641,4.97476 -1.946641,1.94662 -4.974739,1.94662 -3.028109,0 -4.974745,-1.94662 -1.946639,-1.94665 -1.946639,-4.97476 z m 1.946639,-20.11525 q 0,-3.02812 1.946636,-4.97475 1.946641,-1.94663 4.97475,-1.94663 3.028098,0 4.974739,1.94663 1.946632,1.94663 1.946632,4.97475 0,3.02809 -1.946632,4.97473 -1.946641,1.94665 -4.974739,1.94665 -3.028109,0 -4.97475,-1.94665 -1.946636,-1.94664 -1.946636,-4.97473 z m -1.946639,-22.27819 q 0,-3.02813 1.946639,-4.97476 1.946636,-1.94663 4.974745,-1.94663 3.028098,0 4.974739,1.94663 1.946641,1.94663 1.946641,4.97476 0,3.02809 -1.946641,4.97472 -1.946641,1.94666 -4.974739,1.94666 -3.028109,0 -4.974745,-1.94666 -1.946639,-1.94663 -1.946639,-4.97472 z m 19.466388,8.86803 q 0,-3.02814 1.946634,-4.97475 1.94664,-1.94666 4.97473,-1.94666 3.02812,0 4.97475,1.94666 1.94662,1.94661 1.94662,4.97475 0,3.02808 -1.94662,4.97472 -1.94663,1.94665 -4.97475,1.94665 -3.02809,0 -4.97473,-1.94665 -1.946634,-1.94664 -1.946634,-4.97472 z M 60.330048,378.56976 q 0,-3.02809 1.946637,-4.97475 1.94664,-1.94663 4.974744,-1.94663 3.028103,0 4.974743,1.94663 1.946635,1.94666 1.946635,4.97475 0,3.02808 -1.946635,4.97474 -1.94664,1.94663 -4.974743,1.94663 -3.028104,0 -4.974744,-1.94663 -1.946637,-1.94666 -1.946637,-4.97474 z M 76.33574,364.51071 q 0,-3.02813 1.946639,-4.97475 1.946637,-1.94664 4.974741,-1.94664 3.028109,0 4.97474,1.94664 1.946642,1.94662 1.946642,4.97475 0,3.02811 -1.946642,4.97472 -1.946631,1.94665 -4.97474,1.94665 -3.028104,0 -4.974741,-1.94665 -1.946639,-1.94661 -1.946639,-4.97472 z m 20.547846,-10.1658 q 0,-3.02807 1.946652,-4.97473 1.946632,-1.94664 4.974722,-1.94664 3.02811,0 4.97475,1.94664 1.94664,1.94666 1.94664,4.97473 0,3.02813 -1.94664,4.97477 -1.94664,1.94663 -4.97475,1.94663 -3.02809,0 -4.974722,-1.94663 -1.946652,-1.94664 -1.946652,-4.97477 z m 23.359634,-5.19103 q 0,-3.0281 1.94666,-4.97472 1.94664,-1.94665 4.97475,-1.94665 3.02811,0 4.97474,1.94665 1.94663,1.94662 1.94663,4.97472 0,3.02813 -1.94663,4.97475 -1.94663,1.94664 -4.97474,1.94664 -3.02811,0 -4.97475,-1.94664 -1.94666,-1.94662 -1.94666,-4.97475 z m 22.06193,1.51407 q 0,-3.02813 1.94661,-4.97473 1.94666,-1.94665 4.97475,-1.94665 3.02812,0 4.97474,1.94665 1.94665,1.9466 1.94665,4.97473 0,3.02809 -1.94665,4.97474 -1.94662,1.94663 -4.97474,1.94663 -3.02809,0 -4.97475,-1.94663 -1.94661,-1.94665 -1.94661,-4.97474 z"
         style="font-style:normal;font-variant:normal;font-weight:normal;font-stretch:normal;font-family:'_Layiji Kutlaimuu v 2.02';-inkscape-font-specification:'_Layiji Kutlaimuu v 2.02, ';fill:#000000;fill-opacity:1;stroke:none;stroke-opacity:1"
         id="path3345-6"
         inkscape:connector-curvature="0" />
    </g>
    <g
       transform="translate(499.71514,-44.487786)"
       style="font-style:normal;font-weight:normal;font-size:391.1137085px;line-height:125%;font-family:sans-serif;letter-spacing:0px;word-spacing:0px;fill:#000000;fill-opacity:1;stroke:none;stroke-width:1px;stroke-linecap:butt;stroke-linejoin:miter;stroke-opacity:1"
       id="text3340-6">
      <path
         d="m 190.53854,514.61813 q 0,-3.02808 1.94661,-4.97474 1.94664,-1.94664 4.97475,-1.94664 3.0281,0 4.97472,1.94664 1.94665,1.94666 1.94665,4.97474 0,3.02811 -1.94665,4.97476 -1.94662,1.94663 -4.97472,1.94663 -3.02811,0 -4.97475,-1.94663 -1.94661,-1.94665 -1.94661,-4.97476 z m 0,-20.7641 q 0,-3.02813 1.94661,-4.97476 1.94664,-1.94666 4.97475,-1.94666 3.0281,0 4.97472,1.94666 1.94665,1.94663 1.94665,4.97476 0,3.02809 -1.94665,4.97471 -1.94662,1.94663 -4.97472,1.94663 -3.02811,0 -4.97475,-1.94663 -1.94661,-1.94662 -1.94661,-4.97471 z m 0,-21.62936 q 0,-3.02807 1.94661,-4.97473 1.94664,-1.94663 4.97475,-1.94663 3.0281,0 4.97472,1.94663 1.94665,1.94666 1.94665,4.97473 0,3.02812 -1.94665,4.97477 -1.94662,1.94664 -4.97472,1.94664 -3.02811,0 -4.97475,-1.94664 -1.94661,-1.94665 -1.94661,-4.97477 z m 0,-20.76412 q 0,-3.02811 1.94661,-4.97474 1.94664,-1.94664 4.97475,-1.94664 3.0281,0 4.97472,1.94664 1.94665,1.94663 1.94665,4.97474 0,3.02811 -1.94665,4.97474 -1.94662,1.94663 -4.97472,1.94663 -3.02811,0 -4.97475,-1.94663 -1.94661,-1.94663 -1.94661,-4.97474 z m 0,-21.41303 q 0,-3.02808 1.94661,-4.97473 1.94664,-1.94665 4.97475,-1.94665 3.0281,0 4.97472,1.94665 1.94665,1.94665 1.94665,4.97473 0,3.02811 -1.94665,4.97476 -1.94662,1.94662 -4.97472,1.94662 -3.02811,0 -4.97475,-1.94662 -1.94661,-1.94665 -1.94661,-4.97476 z m 0,-20.76413 q 0,-3.02812 1.94661,-4.97476 1.94664,-1.94661 4.97475,-1.94661 3.0281,0 4.97472,1.94661 1.94665,1.94664 1.94665,4.97476 0,3.0281 -1.94665,4.97473 -1.94662,1.94664 -4.97472,1.94664 -3.02811,0 -4.97475,-1.94664 -1.94661,-1.94663 -1.94661,-4.97473 z m 0,-21.62931 q 0,-3.02813 1.94661,-4.97476 1.94664,-1.94663 4.97475,-1.94663 3.0281,0 4.97472,1.94663 1.94665,1.94663 1.94665,4.97476 0,3.02809 -1.94665,4.97472 -1.94662,1.94666 -4.97472,1.94666 -3.02811,0 -4.97475,-1.94666 -1.94661,-1.94663 -1.94661,-4.97472 z m -9.73323,-18.38492 q 0,-3.02811 1.94666,-4.97475 1.94663,-1.94665 4.97473,-1.94665 3.02812,0 4.97475,1.94665 1.94663,1.94664 1.94663,4.97475 0,3.02809 -1.94663,4.97475 -1.94663,1.94661 -4.97475,1.94661 -3.0281,0 -4.97473,-1.94661 -1.94666,-1.94666 -1.94666,-4.97475 z m -17.08715,-12.54502 q 0,-3.0281 1.94663,-4.97475 1.94665,-1.94662 4.97478,-1.94662 3.02808,0 4.97472,1.94662 1.94664,1.94665 1.94664,4.97475 0,3.0281 -1.94664,4.97474 -1.94664,1.94665 -4.97472,1.94665 -3.02813,0 -4.97478,-1.94665 -1.94663,-1.94664 -1.94663,-4.97474 z M 78.931258,514.61813 q 0,-3.02808 1.946639,-4.97474 1.946636,-1.94664 4.974745,-1.94664 3.028098,0 4.974739,1.94664 1.946641,1.94666 1.946641,4.97474 0,3.02811 -1.946641,4.97476 -1.946641,1.94663 -4.974739,1.94663 -3.028109,0 -4.974745,-1.94663 -1.946639,-1.94665 -1.946639,-4.97476 z m 0,-20.7641 q 0,-3.02813 1.946639,-4.97476 1.946636,-1.94666 4.974745,-1.94666 3.028098,0 4.974739,1.94666 1.946641,1.94663 1.946641,4.97476 0,3.02809 -1.946641,4.97471 -1.946641,1.94663 -4.974739,1.94663 -3.028109,0 -4.974745,-1.94663 -1.946639,-1.94662 -1.946639,-4.97471 z m 0,-21.62936 q 0,-3.02807 1.946639,-4.97473 1.946636,-1.94663 4.974745,-1.94663 3.028098,0 4.974739,1.94663 1.946641,1.94666 1.946641,4.97473 0,3.02812 -1.946641,4.97477 -1.946641,1.94664 -4.974739,1.94664 -3.028109,0 -4.974745,-1.94664 -1.946639,-1.94665 -1.946639,-4.97477 z m 0,-20.76412 q 0,-3.02811 1.946639,-4.97474 1.946636,-1.94664 4.974745,-1.94664 3.028098,0 4.974739,1.94664 1.946641,1.94663 1.946641,4.97474 0,3.02811 -1.946641,4.97474 -1.946641,1.94663 -4.974739,1.94663 -3.028109,0 -4.974745,-1.94663 -1.946639,-1.94663 -1.946639,-4.97474 z m 0,-21.41303 q 0,-3.02808 1.946639,-4.97473 1.946636,-1.94665 4.974745,-1.94665 3.028098,0 4.974739,1.94665 1.946641,1.94665 1.946641,4.97473 0,3.02811 -1.946641,4.97476 -1.946641,1.94662 -4.974739,1.94662 -3.028109,0 -4.974745,-1.94662 -1.946639,-1.94665 -1.946639,-4.97476 z m 1.946639,-20.11525 q 0,-3.02812 1.946636,-4.97475 1.946641,-1.94663 4.97475,-1.94663 3.028098,0 4.974739,1.94663 1.946632,1.94663 1.946632,4.97475 0,3.02809 -1.946632,4.97473 -1.946641,1.94665 -4.974739,1.94665 -3.028109,0 -4.97475,-1.94665 -1.946636,-1.94664 -1.946636,-4.97473 z m -1.946639,-22.27819 q 0,-3.02813 1.946639,-4.97476 1.946636,-1.94663 4.974745,-1.94663 3.028098,0 4.974739,1.94663 1.946641,1.94663 1.946641,4.97476 0,3.02809 -1.946641,4.97472 -1.946641,1.94666 -4.974739,1.94666 -3.028109,0 -4.974745,-1.94666 -1.946639,-1.94663 -1.946639,-4.97472 z m 19.466388,8.86803 q 0,-3.02814 1.946634,-4.97475 1.94664,-1.94666 4.97473,-1.94666 3.02812,0 4.97475,1.94666 1.94662,1.94661 1.94662,4.97475 0,3.02808 -1.94662,4.97472 -1.94663,1.94665 -4.97475,1.94665 -3.02809,0 -4.97473,-1.94665 -1.946634,-1.94664 -1.946634,-4.97472 z M 60.330048,378.56976 q 0,-3.02809 1.946637,-4.97475 1.94664,-1.94663 4.974744,-1.94663 3.028103,0 4.974743,1.94663 1.946635,1.94666 1.946635,4.97475 0,3.02808 -1.946635,4.97474 -1.94664,1.94663 -4.974743,1.94663 -3.028104,0 -4.974744,-1.94663 -1.946637,-1.94666 -1.946637,-4.97474 z M 76.33574,364.51071 q 0,-3.02813 1.946639,-4.97475 1.946637,-1.94664 4.974741,-1.94664 3.028109,0 4.97474,1.94664 1.946642,1.94662 1.946642,4.97475 0,3.02811 -1.946642,4.97472 -1.946631,1.94665 -4.97474,1.94665 -3.028104,0 -4.974741,-1.94665 -1.946639,-1.94661 -1.946639,-4.97472 z m 20.547846,-10.1658 q 0,-3.02807 1.946652,-4.97473 1.946632,-1.94664 4.974722,-1.94664 3.02811,0 4.97475,1.94664 1.94664,1.94666 1.94664,4.97473 0,3.02813 -1.94664,4.97477 -1.94664,1.94663 -4.97475,1.94663 -3.02809,0 -4.974722,-1.94663 -1.946652,-1.94664 -1.946652,-4.97477 z m 23.359634,-5.19103 q 0,-3.0281 1.94666,-4.97472 1.94664,-1.94665 4.97475,-1.94665 3.02811,0 4.97474,1.94665 1.94663,1.94662 1.94663,4.97472 0,3.02813 -1.94663,4.97475 -1.94663,1.94664 -4.97474,1.94664 -3.02811,0 -4.97475,-1.94664 -1.94666,-1.94662 -1.94666,-4.97475 z m 22.06193,1.51407 q 0,-3.02813 1.94661,-4.97473 1.94666,-1.94665 4.97475,-1.94665 3.02812,0 4.97474,1.94665 1.94665,1.9466 1.94665,4.97473 0,3.02809 -1.94665,4.97474 -1.94662,1.94663 -4.97474,1.94663 -3.02809,0 -4.97475,-1.94663 -1.94661,-1.94665 -1.94661,-4.97474 z"
         style="font-style:normal;font-variant:normal;font-weight:normal;font-stretch:normal;font-family:'_Layiji Kutlaimuu v 2.02';-inkscape-font-specification:'_Layiji Kutlaimuu v 2.02, ';fill:#000000;fill-opacity:1;stroke:none;stroke-opacity:1"
         id="path3345-1"
         inkscape:connector-curvature="0" />
    </g>
    <g
       transform="translate(759.33992,-44.487786)"
       style="font-style:normal;font-weight:normal;font-size:391.1137085px;line-height:125%;font-family:sans-serif;letter-spacing:0px;word-spacing:0px;fill:#000000;fill-opacity:1;stroke:none;stroke-width:1px;stroke-linecap:butt;stroke-linejoin:miter;stroke-opacity:1"
       id="text3340-0">
      <path
         d="m 190.53854,514.61813 q 0,-3.02808 1.94661,-4.97474 1.94664,-1.94664 4.97475,-1.94664 3.0281,0 4.97472,1.94664 1.94665,1.94666 1.94665,4.97474 0,3.02811 -1.94665,4.97476 -1.94662,1.94663 -4.97472,1.94663 -3.02811,0 -4.97475,-1.94663 -1.94661,-1.94665 -1.94661,-4.97476 z m 0,-20.7641 q 0,-3.02813 1.94661,-4.97476 1.94664,-1.94666 4.97475,-1.94666 3.0281,0 4.97472,1.94666 1.94665,1.94663 1.94665,4.97476 0,3.02809 -1.94665,4.97471 -1.94662,1.94663 -4.97472,1.94663 -3.02811,0 -4.97475,-1.94663 -1.94661,-1.94662 -1.94661,-4.97471 z m 0,-21.62936 q 0,-3.02807 1.94661,-4.97473 1.94664,-1.94663 4.97475,-1.94663 3.0281,0 4.97472,1.94663 1.94665,1.94666 1.94665,4.97473 0,3.02812 -1.94665,4.97477 -1.94662,1.94664 -4.97472,1.94664 -3.02811,0 -4.97475,-1.94664 -1.94661,-1.94665 -1.94661,-4.97477 z m 0,-20.76412 q 0,-3.02811 1.94661,-4.97474 1.94664,-1.94664 4.97475,-1.94664 3.0281,0 4.97472,1.94664 1.94665,1.94663 1.94665,4.97474 0,3.02811 -1.94665,4.97474 -1.94662,1.94663 -4.97472,1.94663 -3.02811,0 -4.97475,-1.94663 -1.94661,-1.94663 -1.94661,-4.97474 z m 0,-21.41303 q 0,-3.02808 1.94661,-4.97473 1.94664,-1.94665 4.97475,-1.94665 3.0281,0 4.97472,1.94665 1.94665,1.94665 1.94665,4.97473 0,3.02811 -1.94665,4.97476 -1.94662,1.94662 -4.97472,1.94662 -3.02811,0 -4.97475,-1.94662 -1.94661,-1.94665 -1.94661,-4.97476 z m 0,-20.76413 q 0,-3.02812 1.94661,-4.97476 1.94664,-1.94661 4.97475,-1.94661 3.0281,0 4.97472,1.94661 1.94665,1.94664 1.94665,4.97476 0,3.0281 -1.94665,4.97473 -1.94662,1.94664 -4.97472,1.94664 -3.02811,0 -4.97475,-1.94664 -1.94661,-1.94663 -1.94661,-4.97473 z m 0,-21.62931 q 0,-3.02813 1.94661,-4.97476 1.94664,-1.94663 4.97475,-1.94663 3.0281,0 4.97472,1.94663 1.94665,1.94663 1.94665,4.97476 0,3.02809 -1.94665,4.97472 -1.94662,1.94666 -4.97472,1.94666 -3.02811,0 -4.97475,-1.94666 -1.94661,-1.94663 -1.94661,-4.97472 z m -9.73323,-18.38492 q 0,-3.02811 1.94666,-4.97475 1.94663,-1.94665 4.97473,-1.94665 3.02812,0 4.97475,1.94665 1.94663,1.94664 1.94663,4.97475 0,3.02809 -1.94663,4.97475 -1.94663,1.94661 -4.97475,1.94661 -3.0281,0 -4.97473,-1.94661 -1.94666,-1.94666 -1.94666,-4.97475 z m -17.08715,-12.54502 q 0,-3.0281 1.94663,-4.97475 1.94665,-1.94662 4.97478,-1.94662 3.02808,0 4.97472,1.94662 1.94664,1.94665 1.94664,4.97475 0,3.0281 -1.94664,4.97474 -1.94664,1.94665 -4.97472,1.94665 -3.02813,0 -4.97478,-1.94665 -1.94663,-1.94664 -1.94663,-4.97474 z M 78.931258,514.61813 q 0,-3.02808 1.946639,-4.97474 1.946636,-1.94664 4.974745,-1.94664 3.028098,0 4.974739,1.94664 1.946641,1.94666 1.946641,4.97474 0,3.02811 -1.946641,4.97476 -1.946641,1.94663 -4.974739,1.94663 -3.028109,0 -4.974745,-1.94663 -1.946639,-1.94665 -1.946639,-4.97476 z m 0,-20.7641 q 0,-3.02813 1.946639,-4.97476 1.946636,-1.94666 4.974745,-1.94666 3.028098,0 4.974739,1.94666 1.946641,1.94663 1.946641,4.97476 0,3.02809 -1.946641,4.97471 -1.946641,1.94663 -4.974739,1.94663 -3.028109,0 -4.974745,-1.94663 -1.946639,-1.94662 -1.946639,-4.97471 z m 0,-21.62936 q 0,-3.02807 1.946639,-4.97473 1.946636,-1.94663 4.974745,-1.94663 3.028098,0 4.974739,1.94663 1.946641,1.94666 1.946641,4.97473 0,3.02812 -1.946641,4.97477 -1.946641,1.94664 -4.974739,1.94664 -3.028109,0 -4.974745,-1.94664 -1.946639,-1.94665 -1.946639,-4.97477 z m 0,-20.76412 q 0,-3.02811 1.946639,-4.97474 1.946636,-1.94664 4.974745,-1.94664 3.028098,0 4.974739,1.94664 1.946641,1.94663 1.946641,4.97474 0,3.02811 -1.946641,4.97474 -1.946641,1.94663 -4.974739,1.94663 -3.028109,0 -4.974745,-1.94663 -1.946639,-1.94663 -1.946639,-4.97474 z m 0,-21.41303 q 0,-3.02808 1.946639,-4.97473 1.946636,-1.94665 4.974745,-1.94665 3.028098,0 4.974739,1.94665 1.946641,1.94665 1.946641,4.97473 0,3.02811 -1.946641,4.97476 -1.946641,1.94662 -4.974739,1.94662 -3.028109,0 -4.974745,-1.94662 -1.946639,-1.94665 -1.946639,-4.97476 z m 1.946639,-20.11525 q 0,-3.02812 1.946636,-4.97475 1.946641,-1.94663 4.97475,-1.94663 3.028098,0 4.974739,1.94663 1.946632,1.94663 1.946632,4.97475 0,3.02809 -1.946632,4.97473 -1.946641,1.94665 -4.974739,1.94665 -3.028109,0 -4.97475,-1.94665 -1.946636,-1.94664 -1.946636,-4.97473 z m -1.946639,-22.27819 q 0,-3.02813 1.946639,-4.97476 1.946636,-1.94663 4.974745,-1.94663 3.028098,0 4.974739,1.94663 1.946641,1.94663 1.946641,4.97476 0,3.02809 -1.946641,4.97472 -1.946641,1.94666 -4.974739,1.94666 -3.028109,0 -4.974745,-1.94666 -1.946639,-1.94663 -1.946639,-4.97472 z m 19.466388,8.86803 q 0,-3.02814 1.946634,-4.97475 1.94664,-1.94666 4.97473,-1.94666 3.02812,0 4.97475,1.94666 1.94662,1.94661 1.94662,4.97475 0,3.02808 -1.94662,4.97472 -1.94663,1.94665 -4.97475,1.94665 -3.02809,0 -4.97473,-1.94665 -1.946634,-1.94664 -1.946634,-4.97472 z M 60.330048,378.56976 q 0,-3.02809 1.946637,-4.97475 1.94664,-1.94663 4.974744,-1.94663 3.028103,0 4.974743,1.94663 1.946635,1.94666 1.946635,4.97475 0,3.02808 -1.946635,4.97474 -1.94664,1.94663 -4.974743,1.94663 -3.028104,0 -4.974744,-1.94663 -1.946637,-1.94666 -1.946637,-4.97474 z M 76.33574,364.51071 q 0,-3.02813 1.946639,-4.97475 1.946637,-1.94664 4.974741,-1.94664 3.028109,0 4.97474,1.94664 1.946642,1.94662 1.946642,4.97475 0,3.02811 -1.946642,4.97472 -1.946631,1.94665 -4.97474,1.94665 -3.028104,0 -4.974741,-1.94665 -1.946639,-1.94661 -1.946639,-4.97472 z m 20.547846,-10.1658 q 0,-3.02807 1.946652,-4.97473 1.946632,-1.94664 4.974722,-1.94664 3.02811,0 4.97475,1.94664 1.94664,1.94666 1.94664,4.97473 0,3.02813 -1.94664,4.97477 -1.94664,1.94663 -4.97475,1.94663 -3.02809,0 -4.974722,-1.94663 -1.946652,-1.94664 -1.946652,-4.97477 z m 23.359634,-5.19103 q 0,-3.0281 1.94666,-4.97472 1.94664,-1.94665 4.97475,-1.94665 3.02811,0 4.97474,1.94665 1.94663,1.94662 1.94663,4.97472 0,3.02813 -1.94663,4.97475 -1.94663,1.94664 -4.97474,1.94664 -3.02811,0 -4.97475,-1.94664 -1.94666,-1.94662 -1.94666,-4.97475 z m 22.06193,1.51407 q 0,-3.02813 1.94661,-4.97473 1.94666,-1.94665 4.97475,-1.94665 3.02812,0 4.97474,1.94665 1.94665,1.9466 1.94665,4.97473 0,3.02809 -1.94665,4.97474 -1.94662,1.94663 -4.97474,1.94663 -3.02809,0 -4.97475,-1.94663 -1.94661,-1.94665 -1.94661,-4.97474 z"
         style="font-style:normal;font-variant:normal;font-weight:normal;font-stretch:normal;font-family:'_Layiji Kutlaimuu v 2.02';-inkscape-font-specification:'_Layiji Kutlaimuu v 2.02, ';fill:#000000;fill-opacity:1;stroke:none;stroke-opacity:1"
         id="path3345-5"
         inkscape:connector-curvature="0" />
    </g>
    <g
       transform="translate(-0.50433071,196.10691)"
       style="font-style:normal;font-weight:normal;font-size:391.1137085px;line-height:125%;font-family:sans-serif;letter-spacing:0px;word-spacing:0px;fill:#000000;fill-opacity:1;stroke:none;stroke-width:1px;stroke-linecap:butt;stroke-linejoin:miter;stroke-opacity:1"
       id="text3340-7">
      <path
         d="m 190.53854,514.61813 q 0,-3.02808 1.94661,-4.97474 1.94664,-1.94664 4.97475,-1.94664 3.0281,0 4.97472,1.94664 1.94665,1.94666 1.94665,4.97474 0,3.02811 -1.94665,4.97476 -1.94662,1.94663 -4.97472,1.94663 -3.02811,0 -4.97475,-1.94663 -1.94661,-1.94665 -1.94661,-4.97476 z m 0,-20.7641 q 0,-3.02813 1.94661,-4.97476 1.94664,-1.94666 4.97475,-1.94666 3.0281,0 4.97472,1.94666 1.94665,1.94663 1.94665,4.97476 0,3.02809 -1.94665,4.97471 -1.94662,1.94663 -4.97472,1.94663 -3.02811,0 -4.97475,-1.94663 -1.94661,-1.94662 -1.94661,-4.97471 z m 0,-21.62936 q 0,-3.02807 1.94661,-4.97473 1.94664,-1.94663 4.97475,-1.94663 3.0281,0 4.97472,1.94663 1.94665,1.94666 1.94665,4.97473 0,3.02812 -1.94665,4.97477 -1.94662,1.94664 -4.97472,1.94664 -3.02811,0 -4.97475,-1.94664 -1.94661,-1.94665 -1.94661,-4.97477 z m 0,-20.76412 q 0,-3.02811 1.94661,-4.97474 1.94664,-1.94664 4.97475,-1.94664 3.0281,0 4.97472,1.94664 1.94665,1.94663 1.94665,4.97474 0,3.02811 -1.94665,4.97474 -1.94662,1.94663 -4.97472,1.94663 -3.02811,0 -4.97475,-1.94663 -1.94661,-1.94663 -1.94661,-4.97474 z m 0,-21.41303 q 0,-3.02808 1.94661,-4.97473 1.94664,-1.94665 4.97475,-1.94665 3.0281,0 4.97472,1.94665 1.94665,1.94665 1.94665,4.97473 0,3.02811 -1.94665,4.97476 -1.94662,1.94662 -4.97472,1.94662 -3.02811,0 -4.97475,-1.94662 -1.94661,-1.94665 -1.94661,-4.97476 z m 0,-20.76413 q 0,-3.02812 1.94661,-4.97476 1.94664,-1.94661 4.97475,-1.94661 3.0281,0 4.97472,1.94661 1.94665,1.94664 1.94665,4.97476 0,3.0281 -1.94665,4.97473 -1.94662,1.94664 -4.97472,1.94664 -3.02811,0 -4.97475,-1.94664 -1.94661,-1.94663 -1.94661,-4.97473 z m 0,-21.62931 q 0,-3.02813 1.94661,-4.97476 1.94664,-1.94663 4.97475,-1.94663 3.0281,0 4.97472,1.94663 1.94665,1.94663 1.94665,4.97476 0,3.02809 -1.94665,4.97472 -1.94662,1.94666 -4.97472,1.94666 -3.02811,0 -4.97475,-1.94666 -1.94661,-1.94663 -1.94661,-4.97472 z m -9.73323,-18.38492 q 0,-3.02811 1.94666,-4.97475 1.94663,-1.94665 4.97473,-1.94665 3.02812,0 4.97475,1.94665 1.94663,1.94664 1.94663,4.97475 0,3.02809 -1.94663,4.97475 -1.94663,1.94661 -4.97475,1.94661 -3.0281,0 -4.97473,-1.94661 -1.94666,-1.94666 -1.94666,-4.97475 z m -17.08715,-12.54502 q 0,-3.0281 1.94663,-4.97475 1.94665,-1.94662 4.97478,-1.94662 3.02808,0 4.97472,1.94662 1.94664,1.94665 1.94664,4.97475 0,3.0281 -1.94664,4.97474 -1.94664,1.94665 -4.97472,1.94665 -3.02813,0 -4.97478,-1.94665 -1.94663,-1.94664 -1.94663,-4.97474 z M 78.931258,514.61813 q 0,-3.02808 1.946639,-4.97474 1.946636,-1.94664 4.974745,-1.94664 3.028098,0 4.974739,1.94664 1.946641,1.94666 1.946641,4.97474 0,3.02811 -1.946641,4.97476 -1.946641,1.94663 -4.974739,1.94663 -3.028109,0 -4.974745,-1.94663 -1.946639,-1.94665 -1.946639,-4.97476 z m 0,-20.7641 q 0,-3.02813 1.946639,-4.97476 1.946636,-1.94666 4.974745,-1.94666 3.028098,0 4.974739,1.94666 1.946641,1.94663 1.946641,4.97476 0,3.02809 -1.946641,4.97471 -1.946641,1.94663 -4.974739,1.94663 -3.028109,0 -4.974745,-1.94663 -1.946639,-1.94662 -1.946639,-4.97471 z m 0,-21.62936 q 0,-3.02807 1.946639,-4.97473 1.946636,-1.94663 4.974745,-1.94663 3.028098,0 4.974739,1.94663 1.946641,1.94666 1.946641,4.97473 0,3.02812 -1.946641,4.97477 -1.946641,1.94664 -4.974739,1.94664 -3.028109,0 -4.974745,-1.94664 -1.946639,-1.94665 -1.946639,-4.97477 z m 0,-20.76412 q 0,-3.02811 1.946639,-4.97474 1.946636,-1.94664 4.974745,-1.94664 3.028098,0 4.974739,1.94664 1.946641,1.94663 1.946641,4.97474 0,3.02811 -1.946641,4.97474 -1.946641,1.94663 -4.974739,1.94663 -3.028109,0 -4.974745,-1.94663 -1.946639,-1.94663 -1.946639,-4.97474 z m 0,-21.41303 q 0,-3.02808 1.946639,-4.97473 1.946636,-1.94665 4.974745,-1.94665 3.028098,0 4.974739,1.94665 1.946641,1.94665 1.946641,4.97473 0,3.02811 -1.946641,4.97476 -1.946641,1.94662 -4.974739,1.94662 -3.028109,0 -4.974745,-1.94662 -1.946639,-1.94665 -1.946639,-4.97476 z m 1.946639,-20.11525 q 0,-3.02812 1.946636,-4.97475 1.946641,-1.94663 4.97475,-1.94663 3.028098,0 4.974739,1.94663 1.946632,1.94663 1.946632,4.97475 0,3.02809 -1.946632,4.97473 -1.946641,1.94665 -4.974739,1.94665 -3.028109,0 -4.97475,-1.94665 -1.946636,-1.94664 -1.946636,-4.97473 z m -1.946639,-22.27819 q 0,-3.02813 1.946639,-4.97476 1.946636,-1.94663 4.974745,-1.94663 3.028098,0 4.974739,1.94663 1.946641,1.94663 1.946641,4.97476 0,3.02809 -1.946641,4.97472 -1.946641,1.94666 -4.974739,1.94666 -3.028109,0 -4.974745,-1.94666 -1.946639,-1.94663 -1.946639,-4.97472 z m 19.466388,8.86803 q 0,-3.02814 1.946634,-4.97475 1.94664,-1.94666 4.97473,-1.94666 3.02812,0 4.97475,1.94666 1.94662,1.94661 1.94662,4.97475 0,3.02808 -1.94662,4.97472 -1.94663,1.94665 -4.97475,1.94665 -3.02809,0 -4.97473,-1.94665 -1.946634,-1.94664 -1.946634,-4.97472 z M 60.330048,378.56976 q 0,-3.02809 1.946637,-4.97475 1.94664,-1.94663 4.974744,-1.94663 3.028103,0 4.974743,1.94663 1.946635,1.94666 1.946635,4.97475 0,3.02808 -1.946635,4.97474 -1.94664,1.94663 -4.974743,1.94663 -3.028104,0 -4.974744,-1.94663 -1.946637,-1.94666 -1.946637,-4.97474 z M 76.33574,364.51071 q 0,-3.02813 1.946639,-4.97475 1.946637,-1.94664 4.974741,-1.94664 3.028109,0 4.97474,1.94664 1.946642,1.94662 1.946642,4.97475 0,3.02811 -1.946642,4.97472 -1.946631,1.94665 -4.97474,1.94665 -3.028104,0 -4.974741,-1.94665 -1.946639,-1.94661 -1.946639,-4.97472 z m 20.547846,-10.1658 q 0,-3.02807 1.946652,-4.97473 1.946632,-1.94664 4.974722,-1.94664 3.02811,0 4.97475,1.94664 1.94664,1.94666 1.94664,4.97473 0,3.02813 -1.94664,4.97477 -1.94664,1.94663 -4.97475,1.94663 -3.02809,0 -4.974722,-1.94663 -1.946652,-1.94664 -1.946652,-4.97477 z m 23.359634,-5.19103 q 0,-3.0281 1.94666,-4.97472 1.94664,-1.94665 4.97475,-1.94665 3.02811,0 4.97474,1.94665 1.94663,1.94662 1.94663,4.97472 0,3.02813 -1.94663,4.97475 -1.94663,1.94664 -4.97474,1.94664 -3.02811,0 -4.97475,-1.94664 -1.94666,-1.94662 -1.94666,-4.97475 z m 22.06193,1.51407 q 0,-3.02813 1.94661,-4.97473 1.94666,-1.94665 4.97475,-1.94665 3.02812,0 4.97474,1.94665 1.94665,1.9466 1.94665,4.97473 0,3.02809 -1.94665,4.97474 -1.94662,1.94663 -4.97474,1.94663 -3.02809,0 -4.97475,-1.94663 -1.94661,-1.94665 -1.94661,-4.97474 z"
         style="font-style:normal;font-variant:normal;font-weight:normal;font-stretch:normal;font-family:'_Layiji Kutlaimuu v 2.02';-inkscape-font-specification:'_Layiji Kutlaimuu v 2.02, ';fill:#000000;fill-opacity:1;stroke:none;stroke-opacity:1"
         id="path3345-2"
         inkscape:connector-curvature="0" />
    </g>
    <g
       transform="translate(240.09036,196.1069)"
       style="font-style:normal;font-weight:normal;font-size:391.1137085px;line-height:125%;font-family:sans-serif;letter-spacing:0px;word-spacing:0px;fill:#000000;fill-opacity:1;stroke:none;stroke-width:1px;stroke-linecap:butt;stroke-linejoin:miter;stroke-opacity:1"
       id="text3340-88">
      <path
         d="m 190.53854,514.61813 q 0,-3.02808 1.94661,-4.97474 1.94664,-1.94664 4.97475,-1.94664 3.0281,0 4.97472,1.94664 1.94665,1.94666 1.94665,4.97474 0,3.02811 -1.94665,4.97476 -1.94662,1.94663 -4.97472,1.94663 -3.02811,0 -4.97475,-1.94663 -1.94661,-1.94665 -1.94661,-4.97476 z m 0,-20.7641 q 0,-3.02813 1.94661,-4.97476 1.94664,-1.94666 4.97475,-1.94666 3.0281,0 4.97472,1.94666 1.94665,1.94663 1.94665,4.97476 0,3.02809 -1.94665,4.97471 -1.94662,1.94663 -4.97472,1.94663 -3.02811,0 -4.97475,-1.94663 -1.94661,-1.94662 -1.94661,-4.97471 z m 0,-21.62936 q 0,-3.02807 1.94661,-4.97473 1.94664,-1.94663 4.97475,-1.94663 3.0281,0 4.97472,1.94663 1.94665,1.94666 1.94665,4.97473 0,3.02812 -1.94665,4.97477 -1.94662,1.94664 -4.97472,1.94664 -3.02811,0 -4.97475,-1.94664 -1.94661,-1.94665 -1.94661,-4.97477 z m 0,-20.76412 q 0,-3.02811 1.94661,-4.97474 1.94664,-1.94664 4.97475,-1.94664 3.0281,0 4.97472,1.94664 1.94665,1.94663 1.94665,4.97474 0,3.02811 -1.94665,4.97474 -1.94662,1.94663 -4.97472,1.94663 -3.02811,0 -4.97475,-1.94663 -1.94661,-1.94663 -1.94661,-4.97474 z m 0,-21.41303 q 0,-3.02808 1.94661,-4.97473 1.94664,-1.94665 4.97475,-1.94665 3.0281,0 4.97472,1.94665 1.94665,1.94665 1.94665,4.97473 0,3.02811 -1.94665,4.97476 -1.94662,1.94662 -4.97472,1.94662 -3.02811,0 -4.97475,-1.94662 -1.94661,-1.94665 -1.94661,-4.97476 z m 0,-20.76413 q 0,-3.02812 1.94661,-4.97476 1.94664,-1.94661 4.97475,-1.94661 3.0281,0 4.97472,1.94661 1.94665,1.94664 1.94665,4.97476 0,3.0281 -1.94665,4.97473 -1.94662,1.94664 -4.97472,1.94664 -3.02811,0 -4.97475,-1.94664 -1.94661,-1.94663 -1.94661,-4.97473 z m 0,-21.62931 q 0,-3.02813 1.94661,-4.97476 1.94664,-1.94663 4.97475,-1.94663 3.0281,0 4.97472,1.94663 1.94665,1.94663 1.94665,4.97476 0,3.02809 -1.94665,4.97472 -1.94662,1.94666 -4.97472,1.94666 -3.02811,0 -4.97475,-1.94666 -1.94661,-1.94663 -1.94661,-4.97472 z m -9.73323,-18.38492 q 0,-3.02811 1.94666,-4.97475 1.94663,-1.94665 4.97473,-1.94665 3.02812,0 4.97475,1.94665 1.94663,1.94664 1.94663,4.97475 0,3.02809 -1.94663,4.97475 -1.94663,1.94661 -4.97475,1.94661 -3.0281,0 -4.97473,-1.94661 -1.94666,-1.94666 -1.94666,-4.97475 z m -17.08715,-12.54502 q 0,-3.0281 1.94663,-4.97475 1.94665,-1.94662 4.97478,-1.94662 3.02808,0 4.97472,1.94662 1.94664,1.94665 1.94664,4.97475 0,3.0281 -1.94664,4.97474 -1.94664,1.94665 -4.97472,1.94665 -3.02813,0 -4.97478,-1.94665 -1.94663,-1.94664 -1.94663,-4.97474 z M 78.931258,514.61813 q 0,-3.02808 1.946639,-4.97474 1.946636,-1.94664 4.974745,-1.94664 3.028098,0 4.974739,1.94664 1.946641,1.94666 1.946641,4.97474 0,3.02811 -1.946641,4.97476 -1.946641,1.94663 -4.974739,1.94663 -3.028109,0 -4.974745,-1.94663 -1.946639,-1.94665 -1.946639,-4.97476 z m 0,-20.7641 q 0,-3.02813 1.946639,-4.97476 1.946636,-1.94666 4.974745,-1.94666 3.028098,0 4.974739,1.94666 1.946641,1.94663 1.946641,4.97476 0,3.02809 -1.946641,4.97471 -1.946641,1.94663 -4.974739,1.94663 -3.028109,0 -4.974745,-1.94663 -1.946639,-1.94662 -1.946639,-4.97471 z m 0,-21.62936 q 0,-3.02807 1.946639,-4.97473 1.946636,-1.94663 4.974745,-1.94663 3.028098,0 4.974739,1.94663 1.946641,1.94666 1.946641,4.97473 0,3.02812 -1.946641,4.97477 -1.946641,1.94664 -4.974739,1.94664 -3.028109,0 -4.974745,-1.94664 -1.946639,-1.94665 -1.946639,-4.97477 z m 0,-20.76412 q 0,-3.02811 1.946639,-4.97474 1.946636,-1.94664 4.974745,-1.94664 3.028098,0 4.974739,1.94664 1.946641,1.94663 1.946641,4.97474 0,3.02811 -1.946641,4.97474 -1.946641,1.94663 -4.974739,1.94663 -3.028109,0 -4.974745,-1.94663 -1.946639,-1.94663 -1.946639,-4.97474 z m 0,-21.41303 q 0,-3.02808 1.946639,-4.97473 1.946636,-1.94665 4.974745,-1.94665 3.028098,0 4.974739,1.94665 1.946641,1.94665 1.946641,4.97473 0,3.02811 -1.946641,4.97476 -1.946641,1.94662 -4.974739,1.94662 -3.028109,0 -4.974745,-1.94662 -1.946639,-1.94665 -1.946639,-4.97476 z m 1.946639,-20.11525 q 0,-3.02812 1.946636,-4.97475 1.946641,-1.94663 4.97475,-1.94663 3.028098,0 4.974739,1.94663 1.946632,1.94663 1.946632,4.97475 0,3.02809 -1.946632,4.97473 -1.946641,1.94665 -4.974739,1.94665 -3.028109,0 -4.97475,-1.94665 -1.946636,-1.94664 -1.946636,-4.97473 z m -1.946639,-22.27819 q 0,-3.02813 1.946639,-4.97476 1.946636,-1.94663 4.974745,-1.94663 3.028098,0 4.974739,1.94663 1.946641,1.94663 1.946641,4.97476 0,3.02809 -1.946641,4.97472 -1.946641,1.94666 -4.974739,1.94666 -3.028109,0 -4.974745,-1.94666 -1.946639,-1.94663 -1.946639,-4.97472 z m 19.466388,8.86803 q 0,-3.02814 1.946634,-4.97475 1.94664,-1.94666 4.97473,-1.94666 3.02812,0 4.97475,1.94666 1.94662,1.94661 1.94662,4.97475 0,3.02808 -1.94662,4.97472 -1.94663,1.94665 -4.97475,1.94665 -3.02809,0 -4.97473,-1.94665 -1.946634,-1.94664 -1.946634,-4.97472 z M 60.330048,378.56976 q 0,-3.02809 1.946637,-4.97475 1.94664,-1.94663 4.974744,-1.94663 3.028103,0 4.974743,1.94663 1.946635,1.94666 1.946635,4.97475 0,3.02808 -1.946635,4.97474 -1.94664,1.94663 -4.974743,1.94663 -3.028104,0 -4.974744,-1.94663 -1.946637,-1.94666 -1.946637,-4.97474 z M 76.33574,364.51071 q 0,-3.02813 1.946639,-4.97475 1.946637,-1.94664 4.974741,-1.94664 3.028109,0 4.97474,1.94664 1.946642,1.94662 1.946642,4.97475 0,3.02811 -1.946642,4.97472 -1.946631,1.94665 -4.97474,1.94665 -3.028104,0 -4.974741,-1.94665 -1.946639,-1.94661 -1.946639,-4.97472 z m 20.547846,-10.1658 q 0,-3.02807 1.946652,-4.97473 1.946632,-1.94664 4.974722,-1.94664 3.02811,0 4.97475,1.94664 1.94664,1.94666 1.94664,4.97473 0,3.02813 -1.94664,4.97477 -1.94664,1.94663 -4.97475,1.94663 -3.02809,0 -4.974722,-1.94663 -1.946652,-1.94664 -1.946652,-4.97477 z m 23.359634,-5.19103 q 0,-3.0281 1.94666,-4.97472 1.94664,-1.94665 4.97475,-1.94665 3.02811,0 4.97474,1.94665 1.94663,1.94662 1.94663,4.97472 0,3.02813 -1.94663,4.97475 -1.94663,1.94664 -4.97474,1.94664 -3.02811,0 -4.97475,-1.94664 -1.94666,-1.94662 -1.94666,-4.97475 z m 22.06193,1.51407 q 0,-3.02813 1.94661,-4.97473 1.94666,-1.94665 4.97475,-1.94665 3.02812,0 4.97474,1.94665 1.94665,1.9466 1.94665,4.97473 0,3.02809 -1.94665,4.97474 -1.94662,1.94663 -4.97474,1.94663 -3.02809,0 -4.97475,-1.94663 -1.94661,-1.94665 -1.94661,-4.97474 z"
         style="font-style:normal;font-variant:normal;font-weight:normal;font-stretch:normal;font-family:'_Layiji Kutlaimuu v 2.02';-inkscape-font-specification:'_Layiji Kutlaimuu v 2.02, ';fill:#000000;fill-opacity:1;stroke:none;stroke-opacity:1"
         id="path3345-24"
         inkscape:connector-curvature="0" />
    </g>
    <g
       transform="translate(499.71514,196.10691)"
       style="font-style:normal;font-weight:normal;font-size:391.1137085px;line-height:125%;font-family:sans-serif;letter-spacing:0px;word-spacing:0px;fill:#000000;fill-opacity:1;stroke:none;stroke-width:1px;stroke-linecap:butt;stroke-linejoin:miter;stroke-opacity:1"
       id="text3340-9">
      <path
         d="m 190.53854,514.61813 q 0,-3.02808 1.94661,-4.97474 1.94664,-1.94664 4.97475,-1.94664 3.0281,0 4.97472,1.94664 1.94665,1.94666 1.94665,4.97474 0,3.02811 -1.94665,4.97476 -1.94662,1.94663 -4.97472,1.94663 -3.02811,0 -4.97475,-1.94663 -1.94661,-1.94665 -1.94661,-4.97476 z m 0,-20.7641 q 0,-3.02813 1.94661,-4.97476 1.94664,-1.94666 4.97475,-1.94666 3.0281,0 4.97472,1.94666 1.94665,1.94663 1.94665,4.97476 0,3.02809 -1.94665,4.97471 -1.94662,1.94663 -4.97472,1.94663 -3.02811,0 -4.97475,-1.94663 -1.94661,-1.94662 -1.94661,-4.97471 z m 0,-21.62936 q 0,-3.02807 1.94661,-4.97473 1.94664,-1.94663 4.97475,-1.94663 3.0281,0 4.97472,1.94663 1.94665,1.94666 1.94665,4.97473 0,3.02812 -1.94665,4.97477 -1.94662,1.94664 -4.97472,1.94664 -3.02811,0 -4.97475,-1.94664 -1.94661,-1.94665 -1.94661,-4.97477 z m 0,-20.76412 q 0,-3.02811 1.94661,-4.97474 1.94664,-1.94664 4.97475,-1.94664 3.0281,0 4.97472,1.94664 1.94665,1.94663 1.94665,4.97474 0,3.02811 -1.94665,4.97474 -1.94662,1.94663 -4.97472,1.94663 -3.02811,0 -4.97475,-1.94663 -1.94661,-1.94663 -1.94661,-4.97474 z m 0,-21.41303 q 0,-3.02808 1.94661,-4.97473 1.94664,-1.94665 4.97475,-1.94665 3.0281,0 4.97472,1.94665 1.94665,1.94665 1.94665,4.97473 0,3.02811 -1.94665,4.97476 -1.94662,1.94662 -4.97472,1.94662 -3.02811,0 -4.97475,-1.94662 -1.94661,-1.94665 -1.94661,-4.97476 z m 0,-20.76413 q 0,-3.02812 1.94661,-4.97476 1.94664,-1.94661 4.97475,-1.94661 3.0281,0 4.97472,1.94661 1.94665,1.94664 1.94665,4.97476 0,3.0281 -1.94665,4.97473 -1.94662,1.94664 -4.97472,1.94664 -3.02811,0 -4.97475,-1.94664 -1.94661,-1.94663 -1.94661,-4.97473 z m 0,-21.62931 q 0,-3.02813 1.94661,-4.97476 1.94664,-1.94663 4.97475,-1.94663 3.0281,0 4.97472,1.94663 1.94665,1.94663 1.94665,4.97476 0,3.02809 -1.94665,4.97472 -1.94662,1.94666 -4.97472,1.94666 -3.02811,0 -4.97475,-1.94666 -1.94661,-1.94663 -1.94661,-4.97472 z m -9.73323,-18.38492 q 0,-3.02811 1.94666,-4.97475 1.94663,-1.94665 4.97473,-1.94665 3.02812,0 4.97475,1.94665 1.94663,1.94664 1.94663,4.97475 0,3.02809 -1.94663,4.97475 -1.94663,1.94661 -4.97475,1.94661 -3.0281,0 -4.97473,-1.94661 -1.94666,-1.94666 -1.94666,-4.97475 z m -17.08715,-12.54502 q 0,-3.0281 1.94663,-4.97475 1.94665,-1.94662 4.97478,-1.94662 3.02808,0 4.97472,1.94662 1.94664,1.94665 1.94664,4.97475 0,3.0281 -1.94664,4.97474 -1.94664,1.94665 -4.97472,1.94665 -3.02813,0 -4.97478,-1.94665 -1.94663,-1.94664 -1.94663,-4.97474 z M 78.931258,514.61813 q 0,-3.02808 1.946639,-4.97474 1.946636,-1.94664 4.974745,-1.94664 3.028098,0 4.974739,1.94664 1.946641,1.94666 1.946641,4.97474 0,3.02811 -1.946641,4.97476 -1.946641,1.94663 -4.974739,1.94663 -3.028109,0 -4.974745,-1.94663 -1.946639,-1.94665 -1.946639,-4.97476 z m 0,-20.7641 q 0,-3.02813 1.946639,-4.97476 1.946636,-1.94666 4.974745,-1.94666 3.028098,0 4.974739,1.94666 1.946641,1.94663 1.946641,4.97476 0,3.02809 -1.946641,4.97471 -1.946641,1.94663 -4.974739,1.94663 -3.028109,0 -4.974745,-1.94663 -1.946639,-1.94662 -1.946639,-4.97471 z m 0,-21.62936 q 0,-3.02807 1.946639,-4.97473 1.946636,-1.94663 4.974745,-1.94663 3.028098,0 4.974739,1.94663 1.946641,1.94666 1.946641,4.97473 0,3.02812 -1.946641,4.97477 -1.946641,1.94664 -4.974739,1.94664 -3.028109,0 -4.974745,-1.94664 -1.946639,-1.94665 -1.946639,-4.97477 z m 0,-20.76412 q 0,-3.02811 1.946639,-4.97474 1.946636,-1.94664 4.974745,-1.94664 3.028098,0 4.974739,1.94664 1.946641,1.94663 1.946641,4.97474 0,3.02811 -1.946641,4.97474 -1.946641,1.94663 -4.974739,1.94663 -3.028109,0 -4.974745,-1.94663 -1.946639,-1.94663 -1.946639,-4.97474 z m 0,-21.41303 q 0,-3.02808 1.946639,-4.97473 1.946636,-1.94665 4.974745,-1.94665 3.028098,0 4.974739,1.94665 1.946641,1.94665 1.946641,4.97473 0,3.02811 -1.946641,4.97476 -1.946641,1.94662 -4.974739,1.94662 -3.028109,0 -4.974745,-1.94662 -1.946639,-1.94665 -1.946639,-4.97476 z m 1.946639,-20.11525 q 0,-3.02812 1.946636,-4.97475 1.946641,-1.94663 4.97475,-1.94663 3.028098,0 4.974739,1.94663 1.946632,1.94663 1.946632,4.97475 0,3.02809 -1.946632,4.97473 -1.946641,1.94665 -4.974739,1.94665 -3.028109,0 -4.97475,-1.94665 -1.946636,-1.94664 -1.946636,-4.97473 z m -1.946639,-22.27819 q 0,-3.02813 1.946639,-4.97476 1.946636,-1.94663 4.974745,-1.94663 3.028098,0 4.974739,1.94663 1.946641,1.94663 1.946641,4.97476 0,3.02809 -1.946641,4.97472 -1.946641,1.94666 -4.974739,1.94666 -3.028109,0 -4.974745,-1.94666 -1.946639,-1.94663 -1.946639,-4.97472 z m 19.466388,8.86803 q 0,-3.02814 1.946634,-4.97475 1.94664,-1.94666 4.97473,-1.94666 3.02812,0 4.97475,1.94666 1.94662,1.94661 1.94662,4.97475 0,3.02808 -1.94662,4.97472 -1.94663,1.94665 -4.97475,1.94665 -3.02809,0 -4.97473,-1.94665 -1.946634,-1.94664 -1.946634,-4.97472 z M 60.330048,378.56976 q 0,-3.02809 1.946637,-4.97475 1.94664,-1.94663 4.974744,-1.94663 3.028103,0 4.974743,1.94663 1.946635,1.94666 1.946635,4.97475 0,3.02808 -1.946635,4.97474 -1.94664,1.94663 -4.974743,1.94663 -3.028104,0 -4.974744,-1.94663 -1.946637,-1.94666 -1.946637,-4.97474 z M 76.33574,364.51071 q 0,-3.02813 1.946639,-4.97475 1.946637,-1.94664 4.974741,-1.94664 3.028109,0 4.97474,1.94664 1.946642,1.94662 1.946642,4.97475 0,3.02811 -1.946642,4.97472 -1.946631,1.94665 -4.97474,1.94665 -3.028104,0 -4.974741,-1.94665 -1.946639,-1.94661 -1.946639,-4.97472 z m 20.547846,-10.1658 q 0,-3.02807 1.946652,-4.97473 1.946632,-1.94664 4.974722,-1.94664 3.02811,0 4.97475,1.94664 1.94664,1.94666 1.94664,4.97473 0,3.02813 -1.94664,4.97477 -1.94664,1.94663 -4.97475,1.94663 -3.02809,0 -4.974722,-1.94663 -1.946652,-1.94664 -1.946652,-4.97477 z m 23.359634,-5.19103 q 0,-3.0281 1.94666,-4.97472 1.94664,-1.94665 4.97475,-1.94665 3.02811,0 4.97474,1.94665 1.94663,1.94662 1.94663,4.97472 0,3.02813 -1.94663,4.97475 -1.94663,1.94664 -4.97474,1.94664 -3.02811,0 -4.97475,-1.94664 -1.94666,-1.94662 -1.94666,-4.97475 z m 22.06193,1.51407 q 0,-3.02813 1.94661,-4.97473 1.94666,-1.94665 4.97475,-1.94665 3.02812,0 4.97474,1.94665 1.94665,1.9466 1.94665,4.97473 0,3.02809 -1.94665,4.97474 -1.94662,1.94663 -4.97474,1.94663 -3.02809,0 -4.97475,-1.94663 -1.94661,-1.94665 -1.94661,-4.97474 z"
         style="font-style:normal;font-variant:normal;font-weight:normal;font-stretch:normal;font-family:'_Layiji Kutlaimuu v 2.02';-inkscape-font-specification:'_Layiji Kutlaimuu v 2.02, ';fill:#000000;fill-opacity:1;stroke:none;stroke-opacity:1"
         id="path3345-70"
         inkscape:connector-curvature="0" />
    </g>
    <g
       transform="translate(759.33992,196.1069)"
       style="font-style:normal;font-weight:normal;font-size:391.1137085px;line-height:125%;font-family:sans-serif;letter-spacing:0px;word-spacing:0px;fill:#000000;fill-opacity:1;stroke:none;stroke-width:1px;stroke-linecap:butt;stroke-linejoin:miter;stroke-opacity:1"
       id="text3340-04">
      <path
         d="m 190.53854,514.61813 q 0,-3.02808 1.94661,-4.97474 1.94664,-1.94664 4.97475,-1.94664 3.0281,0 4.97472,1.94664 1.94665,1.94666 1.94665,4.97474 0,3.02811 -1.94665,4.97476 -1.94662,1.94663 -4.97472,1.94663 -3.02811,0 -4.97475,-1.94663 -1.94661,-1.94665 -1.94661,-4.97476 z m 0,-20.7641 q 0,-3.02813 1.94661,-4.97476 1.94664,-1.94666 4.97475,-1.94666 3.0281,0 4.97472,1.94666 1.94665,1.94663 1.94665,4.97476 0,3.02809 -1.94665,4.97471 -1.94662,1.94663 -4.97472,1.94663 -3.02811,0 -4.97475,-1.94663 -1.94661,-1.94662 -1.94661,-4.97471 z m 0,-21.62936 q 0,-3.02807 1.94661,-4.97473 1.94664,-1.94663 4.97475,-1.94663 3.0281,0 4.97472,1.94663 1.94665,1.94666 1.94665,4.97473 0,3.02812 -1.94665,4.97477 -1.94662,1.94664 -4.97472,1.94664 -3.02811,0 -4.97475,-1.94664 -1.94661,-1.94665 -1.94661,-4.97477 z m 0,-20.76412 q 0,-3.02811 1.94661,-4.97474 1.94664,-1.94664 4.97475,-1.94664 3.0281,0 4.97472,1.94664 1.94665,1.94663 1.94665,4.97474 0,3.02811 -1.94665,4.97474 -1.94662,1.94663 -4.97472,1.94663 -3.02811,0 -4.97475,-1.94663 -1.94661,-1.94663 -1.94661,-4.97474 z m 0,-21.41303 q 0,-3.02808 1.94661,-4.97473 1.94664,-1.94665 4.97475,-1.94665 3.0281,0 4.97472,1.94665 1.94665,1.94665 1.94665,4.97473 0,3.02811 -1.94665,4.97476 -1.94662,1.94662 -4.97472,1.94662 -3.02811,0 -4.97475,-1.94662 -1.94661,-1.94665 -1.94661,-4.97476 z m 0,-20.76413 q 0,-3.02812 1.94661,-4.97476 1.94664,-1.94661 4.97475,-1.94661 3.0281,0 4.97472,1.94661 1.94665,1.94664 1.94665,4.97476 0,3.0281 -1.94665,4.97473 -1.94662,1.94664 -4.97472,1.94664 -3.02811,0 -4.97475,-1.94664 -1.94661,-1.94663 -1.94661,-4.97473 z m 0,-21.62931 q 0,-3.02813 1.94661,-4.97476 1.94664,-1.94663 4.97475,-1.94663 3.0281,0 4.97472,1.94663 1.94665,1.94663 1.94665,4.97476 0,3.02809 -1.94665,4.97472 -1.94662,1.94666 -4.97472,1.94666 -3.02811,0 -4.97475,-1.94666 -1.94661,-1.94663 -1.94661,-4.97472 z m -9.73323,-18.38492 q 0,-3.02811 1.94666,-4.97475 1.94663,-1.94665 4.97473,-1.94665 3.02812,0 4.97475,1.94665 1.94663,1.94664 1.94663,4.97475 0,3.02809 -1.94663,4.97475 -1.94663,1.94661 -4.97475,1.94661 -3.0281,0 -4.97473,-1.94661 -1.94666,-1.94666 -1.94666,-4.97475 z m -17.08715,-12.54502 q 0,-3.0281 1.94663,-4.97475 1.94665,-1.94662 4.97478,-1.94662 3.02808,0 4.97472,1.94662 1.94664,1.94665 1.94664,4.97475 0,3.0281 -1.94664,4.97474 -1.94664,1.94665 -4.97472,1.94665 -3.02813,0 -4.97478,-1.94665 -1.94663,-1.94664 -1.94663,-4.97474 z M 78.931258,514.61813 q 0,-3.02808 1.946639,-4.97474 1.946636,-1.94664 4.974745,-1.94664 3.028098,0 4.974739,1.94664 1.946641,1.94666 1.946641,4.97474 0,3.02811 -1.946641,4.97476 -1.946641,1.94663 -4.974739,1.94663 -3.028109,0 -4.974745,-1.94663 -1.946639,-1.94665 -1.946639,-4.97476 z m 0,-20.7641 q 0,-3.02813 1.946639,-4.97476 1.946636,-1.94666 4.974745,-1.94666 3.028098,0 4.974739,1.94666 1.946641,1.94663 1.946641,4.97476 0,3.02809 -1.946641,4.97471 -1.946641,1.94663 -4.974739,1.94663 -3.028109,0 -4.974745,-1.94663 -1.946639,-1.94662 -1.946639,-4.97471 z m 0,-21.62936 q 0,-3.02807 1.946639,-4.97473 1.946636,-1.94663 4.974745,-1.94663 3.028098,0 4.974739,1.94663 1.946641,1.94666 1.946641,4.97473 0,3.02812 -1.946641,4.97477 -1.946641,1.94664 -4.974739,1.94664 -3.028109,0 -4.974745,-1.94664 -1.946639,-1.94665 -1.946639,-4.97477 z m 0,-20.76412 q 0,-3.02811 1.946639,-4.97474 1.946636,-1.94664 4.974745,-1.94664 3.028098,0 4.974739,1.94664 1.946641,1.94663 1.946641,4.97474 0,3.02811 -1.946641,4.97474 -1.946641,1.94663 -4.974739,1.94663 -3.028109,0 -4.974745,-1.94663 -1.946639,-1.94663 -1.946639,-4.97474 z m 0,-21.41303 q 0,-3.02808 1.946639,-4.97473 1.946636,-1.94665 4.974745,-1.94665 3.028098,0 4.974739,1.94665 1.946641,1.94665 1.946641,4.97473 0,3.02811 -1.946641,4.97476 -1.946641,1.94662 -4.974739,1.94662 -3.028109,0 -4.974745,-1.94662 -1.946639,-1.94665 -1.946639,-4.97476 z m 1.946639,-20.11525 q 0,-3.02812 1.946636,-4.97475 1.946641,-1.94663 4.97475,-1.94663 3.028098,0 4.974739,1.94663 1.946632,1.94663 1.946632,4.97475 0,3.02809 -1.946632,4.97473 -1.946641,1.94665 -4.974739,1.94665 -3.028109,0 -4.97475,-1.94665 -1.946636,-1.94664 -1.946636,-4.97473 z m -1.946639,-22.27819 q 0,-3.02813 1.946639,-4.97476 1.946636,-1.94663 4.974745,-1.94663 3.028098,0 4.974739,1.94663 1.946641,1.94663 1.946641,4.97476 0,3.02809 -1.946641,4.97472 -1.946641,1.94666 -4.974739,1.94666 -3.028109,0 -4.974745,-1.94666 -1.946639,-1.94663 -1.946639,-4.97472 z m 19.466388,8.86803 q 0,-3.02814 1.946634,-4.97475 1.94664,-1.94666 4.97473,-1.94666 3.02812,0 4.97475,1.94666 1.94662,1.94661 1.94662,4.97475 0,3.02808 -1.94662,4.97472 -1.94663,1.94665 -4.97475,1.94665 -3.02809,0 -4.97473,-1.94665 -1.946634,-1.94664 -1.946634,-4.97472 z M 60.330048,378.56976 q 0,-3.02809 1.946637,-4.97475 1.94664,-1.94663 4.974744,-1.94663 3.028103,0 4.974743,1.94663 1.946635,1.94666 1.946635,4.97475 0,3.02808 -1.946635,4.97474 -1.94664,1.94663 -4.974743,1.94663 -3.028104,0 -4.974744,-1.94663 -1.946637,-1.94666 -1.946637,-4.97474 z M 76.33574,364.51071 q 0,-3.02813 1.946639,-4.97475 1.946637,-1.94664 4.974741,-1.94664 3.028109,0 4.97474,1.94664 1.946642,1.94662 1.946642,4.97475 0,3.02811 -1.946642,4.97472 -1.946631,1.94665 -4.97474,1.94665 -3.028104,0 -4.974741,-1.94665 -1.946639,-1.94661 -1.946639,-4.97472 z m 20.547846,-10.1658 q 0,-3.02807 1.946652,-4.97473 1.946632,-1.94664 4.974722,-1.94664 3.02811,0 4.97475,1.94664 1.94664,1.94666 1.94664,4.97473 0,3.02813 -1.94664,4.97477 -1.94664,1.94663 -4.97475,1.94663 -3.02809,0 -4.974722,-1.94663 -1.946652,-1.94664 -1.946652,-4.97477 z m 23.359634,-5.19103 q 0,-3.0281 1.94666,-4.97472 1.94664,-1.94665 4.97475,-1.94665 3.02811,0 4.97474,1.94665 1.94663,1.94662 1.94663,4.97472 0,3.02813 -1.94663,4.97475 -1.94663,1.94664 -4.97474,1.94664 -3.02811,0 -4.97475,-1.94664 -1.94666,-1.94662 -1.94666,-4.97475 z m 22.06193,1.51407 q 0,-3.02813 1.94661,-4.97473 1.94666,-1.94665 4.97475,-1.94665 3.02812,0 4.97474,1.94665 1.94665,1.9466 1.94665,4.97473 0,3.02809 -1.94665,4.97474 -1.94662,1.94663 -4.97474,1.94663 -3.02809,0 -4.97475,-1.94663 -1.94661,-1.94665 -1.94661,-4.97474 z"
         style="font-style:normal;font-variant:normal;font-weight:normal;font-stretch:normal;font-family:'_Layiji Kutlaimuu v 2.02';-inkscape-font-specification:'_Layiji Kutlaimuu v 2.02, ';fill:#000000;fill-opacity:1;stroke:none;stroke-opacity:1"
         id="path3345-19"
         inkscape:connector-curvature="0" />
    </g>
  </g>
  <g
     inkscape:label="drawing-letter"
     inkscape:groupmode="layer"
     id="layer1"
     transform="translate(0,-284.36216)"
     style="display:inline">
    <text
       xml:space="preserve"
       style="font-style:normal;font-weight:normal;font-size:40px;line-height:125%;font-family:sans-serif;letter-spacing:0px;word-spacing:0px;fill:#000000;fill-opacity:1;stroke:none;stroke-width:1px;stroke-linecap:butt;stroke-linejoin:miter;stroke-opacity:1"
       x="156.31857"
       y="467.86658"
       id="text3336"
       sodipodi:linespacing="125%"><tspan
         sodipodi:role="line"
         id="tspan3338"
         x="156.31857"
         y="467.86658"
         style="font-style:normal;font-variant:normal;font-weight:normal;font-stretch:normal;font-family:'_Layiji Kutlaimuu v 2.02';-inkscape-font-specification:'_Layiji Kutlaimuu v 2.02, '" /></text>
    <path
       style="fill:none;fill-rule:evenodd;stroke:#007054;stroke-width:12;stroke-linecap:round;stroke-linejoin:round;stroke-miterlimit:4;stroke-dasharray:none;stroke-opacity:1"
       d="M 86.024234,231.59247 85.543651,127.38378"
       id="path4732"
       inkscape:connector-curvature="0"
       sodipodi:nodetypes="cc"
       transform="translate(0,284.36216)" />
    <path
       style="fill:none;fill-rule:evenodd;stroke:#007054;stroke-width:12;stroke-linecap:round;stroke-linejoin:round;stroke-miterlimit:4;stroke-dasharray:none;stroke-opacity:1"
       d="M 585.63581,232.15443 585.15523,127.94574 606.30085,113.04769 564.97077,94.304978 C 589.96105,65.470039 672.14063,43.363254 697.13091,103.43604"
       id="path4732-1"
       inkscape:connector-curvature="0"
       sodipodi:nodetypes="ccccc"
       transform="translate(0,284.36216)" />
    <path
       style="fill:none;fill-rule:evenodd;stroke:#007054;stroke-width:12;stroke-linecap:round;stroke-linejoin:round;stroke-miterlimit:4;stroke-dasharray:none;stroke-opacity:1"
       d="m 845.60041,232.15442 -0.48058,-104.20869 21.14562,-14.89805 -41.33008,-18.742698 c 24.99028,-28.83494 107.16986,-50.941728 132.16014,9.131048 0,128.79606 0,128.79606 0,128.79606"
       id="path4732-9"
       inkscape:connector-curvature="0"
       sodipodi:nodetypes="cccccc"
       transform="translate(0,284.36216)" />
    <path
       style="display:inline;fill:none;fill-rule:evenodd;stroke:#007054;stroke-width:12;stroke-linecap:round;stroke-linejoin:round;stroke-miterlimit:4;stroke-dasharray:none;stroke-opacity:1"
       d="M 326.22246,515.56525 325.74188,411.35656 346.8875,396.45851 305.55742,377.7158"
       id="path4732-11"
       inkscape:connector-curvature="0"
       sodipodi:nodetypes="cccc" />
  </g>
</svg>
