<?xml version="1.0" encoding="UTF-8" standalone="no"?>
<!-- Created with Inkscape (http://www.inkscape.org/) -->

<svg
   xmlns:dc="http://purl.org/dc/elements/1.1/"
   xmlns:cc="http://creativecommons.org/ns#"
   xmlns:rdf="http://www.w3.org/1999/02/22-rdf-syntax-ns#"
   xmlns:svg="http://www.w3.org/2000/svg"
   xmlns="http://www.w3.org/2000/svg"
   version="1.1"
   width="32"
   height="32"
   id="svg2993">
  <defs
     id="defs2995" />
  <metadata
     id="metadata2998">
    <rdf:RDF>
      <cc:Work
         rdf:about="">
        <dc:format>image/svg+xml</dc:format>
        <dc:type
           rdf:resource="http://purl.org/dc/dcmitype/StillImage" />
        <dc:title></dc:title>
      </cc:Work>
    </rdf:RDF>
  </metadata>
  <g
     id="layer1">
    <path
       d="m 11.956813,15.387923 c 0,0 2.243552,2.173659 3.799849,1.484632 1.297951,-0.606003 1.74058,-1.049959 1.606989,-2.853449 -0.684413,-3.353611 -2.942959,-2.806084 -2.942959,-2.806084 -1.711031,-0.342205 -2.532324,2.053232 -2.532324,2.053232 l 0.136881,14.441048"
       id="path4754"
       style="fill:none;stroke:#000000;stroke-width:1.14980865;stroke-linecap:round;stroke-linejoin:round;stroke-miterlimit:4;stroke-opacity:1;stroke-dasharray:none" />
    <path
       d="m 11.888368,22.232021 c 0,0 -9.444857,-7.460066 -3.0798461,-13.9619615 2.6692041,-3.490491 4.3117821,-3.8326955 4.3117821,-3.8326955 1.916348,0.068444 4.106458,4.653987 4.106458,4.653987 0,0 2.806828,-4.6036844 4.448671,-4.7224282 2.321931,-0.1679326 3.216727,3.9011367 3.216727,3.9011367 l 0.205317,19.5741225"
       id="path4756"
       style="fill:none;stroke:#000000;stroke-width:1.14980865;stroke-linecap:round;stroke-linejoin:round;stroke-miterlimit:4;stroke-opacity:1;stroke-dasharray:none" />
  </g>
</svg>
