<?xml version="1.0" encoding="UTF-8" standalone="no"?>
<!-- Created with Inkscape (http://www.inkscape.org/) -->

<svg
   xmlns:dc="http://purl.org/dc/elements/1.1/"
   xmlns:cc="http://creativecommons.org/ns#"
   xmlns:rdf="http://www.w3.org/1999/02/22-rdf-syntax-ns#"
   xmlns:svg="http://www.w3.org/2000/svg"
   xmlns="http://www.w3.org/2000/svg"
   version="1.1"
   width="32"
   height="32"
   id="svg2993">
  <defs
     id="defs2995" />
  <metadata
     id="metadata2998">
    <rdf:RDF>
      <cc:Work
         rdf:about="">
        <dc:format>image/svg+xml</dc:format>
        <dc:type
           rdf:resource="http://purl.org/dc/dcmitype/StillImage" />
        <dc:title></dc:title>
      </cc:Work>
    </rdf:RDF>
  </metadata>
  <g
     id="layer1">
    <path
       d="m 11.670295,15.568231 c 1.849648,1.982894 2.865617,1.839467 4.215291,1.545608 1.714199,-1.136625 1.45892,-2.844223 1.257313,-3.387663 -0.538924,-2.182062 -2.970222,-2.568066 -3.013688,-2.513737 0,0 -2.177899,-0.210764 -2.669683,1.967134 0,2.107641 0.07027,14.683241 0.07027,14.683241"
       id="path4766"
       style="fill:none;stroke:#000000;stroke-width:0.78685331px;stroke-linecap:butt;stroke-linejoin:miter;stroke-opacity:1" />
    <path
       d="m 11.459528,21.539889 c 0,0 -8.5008246,-4.777325 -3.1614583,-14.050952 2.6696753,-2.5994257 5.1285923,-3.091209 5.1285923,-3.091209 0,0 7.868533,-2.6696806 11.802799,5.620381 -0.07027,8.711589 0.07027,17.844713 0.07027,17.844713"
       id="path4768"
       style="fill:none;stroke:#000000;stroke-width:1.18027997;stroke-linecap:round;stroke-linejoin:round;stroke-miterlimit:4;stroke-opacity:1;stroke-dasharray:none" />
  </g>
</svg>
