<?xml version="1.0" encoding="UTF-8" standalone="no"?>
<!-- Created with Inkscape (http://www.inkscape.org/) -->

<svg
   xmlns:dc="http://purl.org/dc/elements/1.1/"
   xmlns:cc="http://creativecommons.org/ns#"
   xmlns:rdf="http://www.w3.org/1999/02/22-rdf-syntax-ns#"
   xmlns:svg="http://www.w3.org/2000/svg"
   xmlns="http://www.w3.org/2000/svg"
   version="1.1"
   width="32"
   height="32"
   id="svg2993">
  <defs
     id="defs2995" />
  <metadata
     id="metadata2998">
    <rdf:RDF>
      <cc:Work
         rdf:about="">
        <dc:format>image/svg+xml</dc:format>
        <dc:type
           rdf:resource="http://purl.org/dc/dcmitype/StillImage" />
        <dc:title></dc:title>
      </cc:Work>
    </rdf:RDF>
  </metadata>
  <g
     id="layer1">
    <path
       d="m 5.3730208,22.232845 c 0,0 2.8217434,-3.070723 4.7305702,-0.24898 0.663938,2.655758 -1.2448894,3.568675 -1.2448894,3.568675 0,0 -4.066632,1.078896 -3.7346599,-2.323792 -0.082993,-7.303328 0.082993,-9.627113 0.082993,-9.627113 C 5.9539654,12.024774 7.862792,11.443829 7.862792,11.443829 L 2.6342702,9.7839818 c 0,0 7.8012868,-8.4652299 14.4406828,0.6639372 0,5.975453 -0.08299,15.602572 -0.08299,15.602572 0,0 3.319695,-7.718293 8.050265,-7.6353 2.987723,-0.08299 4.813557,1.493862 4.979549,3.817647 -0.165986,2.157806 -0.99591,3.73466 -3.070722,3.651674 -1.659848,-0.331979 -2.074813,-2.572771 -2.074813,-2.572771 L 25.042225,5.8003425"
       id="path4782"
       style="fill:none;stroke:#000000;stroke-width:0.98589963;stroke-linecap:round;stroke-linejoin:round;stroke-miterlimit:4;stroke-opacity:1;stroke-dasharray:none" />
  </g>
</svg>
